<svg width="242" height="70" viewBox="0 0 242 70" fill="none" xmlns="http://www.w3.org/2000/svg">
<path d="M27.3108 0.521961C27.2418 0.62324 26.8332 0.721288 26.4249 0.785365C26.0165 0.849438 25.505 1.04844 25.2313 1.2497C24.9915 1.45129 24.7867 1.55127 24.788 1.41538C24.7932 0.871799 21.269 3.45454 19.2449 5.5079C17.1861 7.62889 13.4987 13.0981 13.7304 13.7459C13.7631 13.8821 13.6598 14.017 13.49 14.0154C13.3201 14.0138 13.1134 14.3176 13.0079 14.6904C12.761 15.6394 12.1165 15.5313 10.2935 14.2908C7.7953 12.6023 6.65632 10.8926 6.47442 8.58045C6.32423 6.50644 7.19584 4.17032 8.04324 4.38223C8.28074 4.41846 8.45254 4.21623 8.45544 3.91046C8.45932 3.50278 8.08657 3.39731 6.55679 3.48471C5.50296 3.54266 4.58438 3.66984 4.48084 3.83874C4.4116 3.97399 4.17346 4.00571 4.00456 3.90218C3.63311 3.66081 1.60866 5.74814 1.84293 6.12412C1.90958 6.26065 1.8397 6.46385 1.63457 6.59781C1.46373 6.69812 1.28451 7.68174 1.27418 8.7689C1.25031 11.283 2.48765 13.3673 4.81829 14.8165C6.2368 15.7133 8.80751 16.9269 9.35076 16.9661C9.45236 17.001 9.79145 17.0722 10.1302 17.1773C10.435 17.2821 10.943 17.4568 11.1802 17.5271C11.5866 17.6668 11.618 17.9389 11.3724 18.752C11.1971 19.328 11.0566 19.8023 11.056 19.8703C11.0557 19.9042 10.9851 20.1754 10.8806 20.4462C9.86734 23.3926 9.744 32.803 10.6627 36.2433C11.3526 38.7302 12.8485 42.21 13.2222 42.2136C13.3921 42.2152 13.526 42.4203 13.5234 42.6921C13.5154 43.5415 16.7514 46.2564 18.2763 46.6786C21.9021 47.6983 25.5506 46.3399 29.3927 42.4691L31.5534 40.3491L32.6635 41.5148C34.4807 43.3668 36.9941 43.4586 39.4907 41.7495C40.5849 41.0124 42.3379 38.8885 42.5158 38.0408C42.5864 37.7697 42.7248 37.4992 42.8617 37.3985C42.9986 37.2979 43.1723 36.8918 43.2435 36.5528C43.281 36.1794 43.4557 35.6714 43.5939 35.4348C43.7657 35.2326 43.7676 35.0288 43.6317 35.0275C43.5298 35.0265 43.5657 34.823 43.7718 34.5871C44.6308 33.576 45.2787 26.1752 44.5733 25.3191C44.3721 25.0453 44.273 24.7386 44.3762 24.6037C44.9247 24.0992 42.8515 20.5799 42.2365 20.9478C42.0656 21.0482 41.9307 20.9449 41.9323 20.7751C41.9381 20.1635 40.2375 20.3513 39.1772 21.0887C38.5615 21.5245 38.1826 22.0646 38.1774 22.6081C38.1707 23.3216 37.9998 23.4219 37.0146 23.4125C36.3691 23.4064 35.4162 23.5672 34.905 23.7323C33.8136 24.1636 32.3748 25.4071 32.3693 25.9846C32.3671 26.2225 32.2292 26.425 32.0594 26.4234C31.6517 26.4195 30.9881 28.3159 31.257 28.6243C31.3919 28.7275 31.2538 28.964 31.0147 29.0976C30.673 29.2983 30.5601 30.4524 30.4981 33.4078L30.426 37.4164L28.0583 39.8742C25.6566 42.3317 22.4097 44.3394 20.779 44.324C16.6682 44.2849 14.0999 39.232 14.2751 31.5209C14.3821 27.4107 14.9262 23.7804 15.7616 21.6818C15.9709 21.1061 16.1796 20.5985 16.1805 20.4965C16.1815 20.3946 16.3562 19.8866 16.5309 19.3786C16.8441 18.6001 16.981 18.4995 17.3851 18.8771C17.9581 19.3582 24.4458 19.5557 25.4696 19.0898C25.8449 18.9235 26.2202 18.7571 26.3221 18.7581C26.9686 18.6623 29.393 17.3942 29.3953 17.1564C29.3965 17.0205 29.6017 16.8866 29.8735 16.8891C30.8587 16.8985 34.0253 12.6135 34.3132 10.9174C34.3504 10.578 34.5248 10.104 34.6626 9.90142C35.0418 9.32741 34.8851 4.36532 34.5113 4.36177C34.3755 4.36048 34.3088 4.22393 34.412 4.08901C34.688 3.64993 33.4151 1.73514 32.436 1.08028C31.5918 0.52864 27.7563 0.11847 27.3108 0.521961ZM32.7124 4.1748C33.2145 4.96103 33.2126 5.16487 32.7205 6.89302C32.0191 9.19678 29.8824 12.3703 27.8269 14.1516C24.9152 16.6382 20.8931 17.993 18.3172 17.323L17.5038 17.1114L18.4382 15.3195C18.9568 14.3731 19.3393 13.4594 19.3069 13.2892C19.2742 13.153 19.3771 13.052 19.581 13.0539C19.7508 13.0556 19.9223 12.8873 19.9242 12.6835C19.9262 12.4796 20.1332 12.1418 20.3733 11.9063C20.5794 11.6704 21.6445 10.4234 22.6763 9.10805C23.7081 7.79276 25.0806 6.37877 25.7303 5.94324C29.9705 3.09548 31.7416 2.63662 32.7124 4.1748ZM42.2879 22.6811C43.0218 24.1151 42.8117 31.9278 41.9718 34.5021C41.6214 35.62 41.2724 36.602 41.2714 36.7039C40.8838 38.1612 38.375 41.1613 37.3539 41.3555C36.4689 41.517 35.3245 40.3849 34.9303 38.9541C34.6029 37.6599 34.6924 35.3843 35.1981 32.2292C35.4507 30.6687 36.8481 26.6387 37.258 26.4048C37.8734 26.0029 38.0423 26.1065 38.239 26.8558C38.3698 27.4007 38.6403 27.5392 39.3883 27.4783C40.4085 27.3861 41.1941 26.9518 41.1986 26.4762C41.2002 26.3063 40.9977 26.1685 40.7599 26.1662C40.4881 26.1637 40.2862 25.9579 40.2884 25.7201C40.1098 23.0682 40.1842 22.3894 40.5281 21.9509C41.0778 21.3106 41.721 21.5545 42.2879 22.6811Z" fill="#FF4F4F"/>
<path d="M114.108 1.92382C114.07 2.29721 114.033 2.70457 113.997 2.90809C113.959 3.31545 113.263 5.07563 112.395 6.97009C112.048 7.71429 111.666 8.662 111.526 9.10237C111.245 9.98311 111.075 9.9815 107.077 8.82229C105.722 8.43568 104.197 8.04744 103.688 7.94068C103.145 7.8336 101.721 7.51429 100.501 7.19691C99.281 6.87953 97.5509 6.59128 96.6003 6.51431C95.6837 6.43765 94.4962 6.25649 93.9879 6.11575C92.5985 5.72881 89.7376 6.44913 88.743 7.42501C88.0571 8.09804 87.883 8.53808 87.974 9.69416C88.0646 10.8842 88.1982 11.1233 88.8434 11.1634C89.2508 11.2013 89.5915 11.1026 89.5931 10.9327C89.5947 10.7628 89.7313 10.6962 89.9002 10.7997C90.3392 11.0757 90.6201 10.127 90.2499 9.74975C90.048 9.54397 90.1881 9.1036 90.6006 8.59786C91.2538 7.78862 92.616 7.46179 95.0612 7.58695C95.5368 7.59146 96.3518 7.63318 96.8951 7.67231C97.4383 7.71145 98.1505 7.85412 98.4886 8.02722C98.7928 8.19999 99.5726 8.37728 100.183 8.45103C100.829 8.49114 101.506 8.66746 101.743 8.80561C101.945 8.97742 102.759 9.12105 103.506 9.16213C104.288 9.16955 104.898 9.34522 104.896 9.51509C104.894 9.68496 105.064 9.72054 105.235 9.62024C105.44 9.48628 105.813 9.55777 106.049 9.76388C106.285 9.96998 106.928 10.1799 107.471 10.2531C108.014 10.3262 108.726 10.5028 109.065 10.608C109.369 10.7468 109.843 10.9211 110.115 10.9917C110.419 11.0965 110.584 11.6077 110.543 12.3548C110.537 13.0003 110.397 13.4747 110.261 13.4054C109.924 13.1644 109.148 16.1809 109.38 16.7947C109.479 17.1015 109.444 17.237 109.241 17.1332C109.038 17.0293 108.868 17.0277 108.866 17.1976C108.651 18.3847 108.474 19.1305 107.841 21.367C107.455 22.7564 107.064 24.5194 106.955 25.2659C106.88 26.0127 106.629 27.3694 106.45 28.319C106.272 29.2347 106.194 30.3212 106.258 30.6956C106.356 31.1042 105.832 32.5602 105.037 34.0816C104.275 35.5694 103.651 36.8886 103.649 37.0584C103.611 37.5337 101.828 39.2496 101.215 39.4137C100.67 39.5444 100.603 39.3739 100.723 37.4723C100.802 36.3518 101.196 34.1811 101.618 32.6901C102.04 31.1991 102.427 29.8098 102.496 29.6405C102.532 29.437 102.742 28.8614 102.95 28.3537C103.68 26.6278 103.825 25.7458 103.383 25.7416C103.077 25.7387 103.147 25.5015 103.559 25.0638C104.143 24.4237 104.144 24.3558 103.271 23.2263C102.298 21.8919 100.2 20.9886 99.583 21.5943C99.3772 21.7963 99.2018 22.3722 99.1627 22.9154C99.153 23.9347 98.4376 24.1317 97.0505 23.507C95.8999 23.0204 93.8544 23.7484 92.4822 25.1285C91.8306 25.7678 91.3149 26.4085 91.3132 26.5784C91.3116 26.7482 91.0363 27.1194 90.7273 27.4562C90.3843 27.7927 90.0045 28.4346 89.8977 28.9433C89.757 29.4516 89.5134 30.0609 89.3076 30.2628C89.1355 30.499 89.0996 30.7025 89.2355 30.7038C89.3714 30.7051 89.3354 30.9086 89.1293 31.1445C88.7171 31.6162 88.4312 33.1085 88.1303 36.1636C87.902 38.7436 88.5731 39.6334 90.7134 39.6537C91.5627 39.6618 92.5836 39.5016 92.9595 39.2673C93.7448 38.8671 95.3266 36.8775 94.885 36.8733C94.7491 36.872 94.8183 36.7367 95.0574 36.6031C95.2968 36.4355 95.7809 35.5567 96.1633 34.6429C96.5117 33.7289 96.824 33.0523 96.857 33.1545C96.856 33.2565 96.9133 34.3782 97.0026 35.7042C97.0583 36.9958 97.2855 38.1192 97.4887 38.1891C97.6579 38.2587 97.8239 38.668 97.82 39.0756C97.8162 39.4833 98.1831 40.2003 98.6209 40.6122C99.4288 41.4013 101.191 41.8598 101.197 41.2822C101.198 41.1124 101.335 41.0457 101.504 41.1492C101.808 41.356 103.969 39.202 105.037 37.6492L105.622 36.8053L105.642 38.3345C105.626 39.9992 106.166 43.9796 106.498 44.7982C106.597 45.071 106.762 45.6162 106.826 45.9565C107.053 47.1818 108.125 48.721 109.072 49.1717C110.526 49.899 112.199 49.0994 113.783 46.906C114.506 45.8936 115.024 45.0491 114.923 44.9462C114.855 44.8776 115.028 44.5734 115.302 44.3042C115.577 44.035 115.716 43.6626 115.616 43.4917C115.482 43.3206 115.551 43.1853 115.721 43.1869C115.891 43.1886 116.2 42.7838 116.443 42.2764C116.755 41.5999 116.96 41.4999 117.229 41.7742C117.465 42.0143 118.21 42.1913 118.924 42.1981C119.977 42.2081 120.523 41.9414 121.757 40.8319C122.614 40.0586 123.301 39.2497 123.303 39.0119C123.306 38.7401 123.444 38.5035 123.648 38.4375C123.819 38.3712 124.508 37.3584 125.199 36.1418L126.409 33.9448L126.294 35.3028C126.253 36.0499 126.11 36.796 125.973 36.9986C125.765 37.3704 125.18 41.7478 125.128 43.6161C125.088 44.2612 125.037 46.0615 124.989 47.556L124.895 50.3073L121.087 50.5089C114.493 50.854 113.235 50.944 110.785 51.2605C109.492 51.4521 107.724 51.6732 106.873 51.767C106.023 51.8609 104.934 52.0884 104.456 52.2877C103.979 52.453 103.434 52.5838 103.264 52.5482C102.858 52.4424 99.9989 52.9249 99.555 53.1585C99.3842 53.2588 98.8053 53.3892 98.2271 53.4517C97.6829 53.5145 97.0355 53.7122 96.7618 53.9135C96.522 54.115 96.3175 54.181 96.3185 54.0791C96.3198 53.9432 96.0134 54.0083 95.6377 54.2086C94.8521 54.6428 94.7049 55.8306 95.4498 56.1095C95.7203 56.248 95.8882 56.4534 95.785 56.5883C95.6818 56.7233 96.1523 57.2714 96.7593 57.7528C98.0409 58.7503 100.009 59.0068 100.017 58.1575C100.02 57.8517 100.703 57.4845 101.895 57.156C102.918 56.8599 103.837 56.6308 103.939 56.6318C104.007 56.6324 104.586 56.4681 105.199 56.304C105.812 56.1399 106.8 55.9115 107.344 55.8487C107.923 55.7523 109.216 55.5267 110.237 55.3665C111.258 55.1723 113.027 54.9513 114.149 54.894C115.271 54.8027 116.563 54.6451 117.04 54.5137C117.517 54.4163 119.115 54.2956 120.61 54.2419C122.106 54.2221 123.704 54.1014 124.146 54.0036C124.997 53.8078 126.213 54.6009 126.207 55.2803C126.205 55.4502 126.641 56.032 127.146 56.5464C127.887 57.2669 128.395 57.4416 129.448 57.4177C130.978 57.3303 132.306 57.0031 132.343 56.6637C132.345 56.5278 132.416 56.1547 132.487 55.8157C132.594 55.341 132.526 55.2724 132.15 55.5746C131.533 56.0784 130.382 55.6937 129.948 54.9081C129.681 54.362 129.852 54.2617 131.654 54.1089C132.743 53.9833 134.508 54.0681 135.56 54.2819C136.577 54.4614 137.766 54.5407 138.106 54.442C138.481 54.3096 139.907 54.4251 141.264 54.6419C142.588 54.8243 144.794 55.0831 146.084 55.1973C147.408 55.2778 149.75 55.5379 151.345 55.7569C152.939 56.0099 154.603 56.1956 155.078 56.1661C155.554 56.1706 156.3 56.3136 156.774 56.488C157.248 56.6624 158.299 56.9102 159.148 56.9862C159.996 57.0962 161.353 57.3129 162.167 57.4906C163.014 57.7025 163.863 57.7785 164.102 57.6788C164.306 57.6128 164.611 57.7176 164.746 57.8888C164.846 58.0936 165.082 58.1978 165.219 58.1311C165.356 58.0305 166.136 58.1738 166.983 58.4197C168.778 58.9804 169.528 58.7496 169.47 57.6618C169.411 56.7779 168.569 55.9544 167.585 55.8771C166.94 55.8031 166.363 55.6957 166.229 55.5585C166.161 55.5239 165.89 55.4533 165.619 55.3828C165.348 55.3123 164.636 55.1017 164.026 54.926C163.451 54.7166 162.874 54.6432 162.771 54.7442C162.668 54.8451 162.363 54.7743 162.127 54.5682C161.891 54.3621 161.146 54.1511 160.5 54.111C159.855 54.0369 159.211 53.8949 159.008 53.7911C158.637 53.5157 156.467 53.0874 154.362 52.8635C153.31 52.7516 153.105 52.8516 152.963 53.4958C152.822 54.1061 152.822 54.1061 152.761 53.29C152.735 52.5423 152.566 52.3708 151.819 52.3297C150.02 52.2107 149.85 52.1751 149.512 51.9681C148.938 51.5889 143.507 51.0616 135.187 50.5749C132.165 50.4103 129.619 50.1822 129.518 50.0794C129.181 49.7704 129.283 46.1358 129.681 43.6593C129.898 42.2683 130.152 40.5039 130.261 39.7575C130.37 39.011 130.586 37.7899 130.763 37.0781C130.939 36.3323 131.048 35.6198 130.948 35.4489C130.847 35.3121 130.953 34.9393 131.126 34.6012C131.403 34.0602 132.499 29.5177 132.79 27.5498C132.827 27.1765 133.039 26.363 133.249 25.7195C133.458 25.1099 133.6 24.4996 133.567 24.3634C133.568 24.2615 133.604 24.0919 133.639 23.9903C133.674 23.8887 133.745 23.5836 133.815 23.3125C133.886 23.0413 134.026 22.533 134.165 22.2285C134.478 21.4501 132.991 20.6205 130.988 20.4656C130.343 20.3915 130.103 20.627 129.685 21.7103C129.44 22.4555 129.159 23.4381 129.053 23.9128C128.981 24.3538 128.738 24.8951 128.532 25.0971C128.36 25.2653 128.186 25.7054 128.183 26.0791C128.18 26.4188 127.937 26.9262 127.662 27.2293C127.388 27.4985 127.214 27.8706 127.315 28.0415C127.449 28.2126 127.346 28.3476 127.176 28.346C126.972 28.344 126.835 28.4446 126.868 28.5809C126.9 28.7511 126.449 29.8 125.826 30.9154C125.238 32.065 124.855 33.0807 124.955 33.2175C125.09 33.3207 125.021 33.422 124.851 33.4204C124.681 33.4188 124.131 34.1271 123.681 35.0062C122.229 37.6766 119.825 40.3719 119.217 39.9924C118.507 39.5439 119.192 35.4392 120.875 29.9849C121.399 28.393 121.821 26.936 121.857 26.6985C121.893 26.461 122.032 26.1566 122.169 26.0559C122.649 25.5848 122.424 24.2236 121.751 23.5377C121.213 22.9889 120.637 22.8476 119.04 22.8324C117.919 22.8218 117 22.9489 116.998 23.1528C116.996 23.3566 116.893 23.4576 116.758 23.4563C116.011 23.3133 115.975 23.5508 116.613 24.3723C117.049 24.954 117.214 25.4313 117.008 25.6672C116.871 25.8697 116.591 26.6485 116.448 27.3947C115.593 31.5657 115.296 37.7806 115.861 39.179C116.093 39.7588 116.122 40.3027 115.951 40.403C115.78 40.5373 115.124 41.6523 114.466 42.9372C113.012 45.7774 112.152 46.8905 111.337 46.8828C110.827 46.8779 110.661 46.5026 110.472 44.9379C110.19 42.353 110.688 32.8782 111.294 29.894C111.436 29.2498 111.582 28.2318 111.689 27.6892C111.762 27.1123 112.152 25.3832 112.575 23.7903C112.964 22.1971 113.387 20.6042 113.458 20.2311C113.53 19.8581 113.601 19.553 113.635 19.5533C113.635 19.5533 114.159 18.0293 114.788 16.1665C115.941 12.8138 115.942 12.7798 117.063 12.7905C117.675 12.7623 118.251 12.9037 118.317 13.0402C118.485 13.3136 121.436 13.8513 122.116 13.7219C122.388 13.6905 122.761 13.8299 123.031 14.0363C123.267 14.2424 125.099 14.4977 127.103 14.5847C131.416 14.7955 132.813 14.401 133.542 12.7431C134.306 10.9496 134.109 10.2342 132.785 10.1197C131.428 9.97091 130.744 10.4401 131.314 11.159C131.651 11.536 131.546 11.8408 130.86 12.5138C130.037 13.2874 129.731 13.3525 127.013 13.3267C125.382 13.3112 123.787 13.1261 123.449 12.953C123.111 12.78 122.229 12.6017 121.516 12.5609C120.769 12.5199 120.158 12.4121 120.159 12.2763C120.161 12.1404 119.483 11.9301 118.635 11.8201C117.821 11.6764 117.042 11.3972 116.908 11.2261C116.808 11.0213 117.228 9.66618 117.82 8.2108L118.932 5.53719L118.299 4.24006C117.633 2.84069 116.487 1.87846 115.097 1.52549C114.317 1.3482 114.147 1.41453 114.108 1.92382ZM98.141 26.7451C97.9986 27.4233 98.0948 28.0358 98.3293 28.3778C98.6985 28.857 98.6985 28.857 98.2265 28.4788C97.7544 28.1005 97.6175 28.2012 97.2008 29.1485C96.9232 29.7575 96.7139 30.3331 96.6789 30.4347C96.678 30.5366 96.4693 31.0443 96.2606 31.552C96.0176 32.0933 95.9442 32.6702 96.0442 32.875C96.1781 33.0801 96.1435 33.1478 95.9406 33.0439C95.7717 32.9404 95.3942 33.3445 95.1502 33.9878C94.1065 36.5601 91.41 37.8596 91.6688 35.6535C92.0016 32.8026 93.323 29.6214 95.1817 27.0908C96.042 25.9437 96.4523 25.6758 97.3016 25.6839C98.3209 25.6936 98.3542 25.7618 98.141 26.7451ZM92.6681 30.6005C92.5633 30.9053 92.4575 31.312 92.4555 31.5158C92.453 31.7876 92.351 31.7867 92.0818 31.5123C91.6444 31.0664 91.9258 30.0498 92.5034 30.0553C92.7072 30.0572 92.7729 30.2957 92.6681 30.6005Z" fill="#FF4F4F"/>
<path d="M144.272 2.68596C144.167 3.0587 144.198 3.36478 144.368 3.3664C144.503 3.36769 144.155 4.24778 143.602 5.2958C142.184 7.93252 140.516 11.824 140.822 11.8269C140.957 11.8282 140.888 11.9635 140.683 12.0974C140.41 12.2647 139.332 14.8707 138.979 16.2264C138.944 16.328 138.735 16.8357 138.492 17.411C137.762 19.1369 135.61 27.5087 135.775 27.9859C135.875 28.2247 135.805 28.4279 135.635 28.4263C135.465 28.4247 135.396 28.6279 135.495 28.9006C135.594 29.1734 135.521 29.6824 135.348 30.0205C134.242 32.0486 134.06 44.0746 135.128 46.0554C135.328 46.465 135.393 46.7715 135.291 46.7705C134.85 46.7663 136.189 48.8516 136.965 49.3686C139.126 50.8162 141.66 48.8016 144.497 43.4263C146.088 40.4174 146.088 40.4174 147.413 40.43C149.248 40.4474 150.55 39.2366 152.074 36.1932C152.767 34.8067 153.389 33.6914 153.457 33.6921C153.525 33.6927 153.55 34.6783 153.538 35.8673C153.483 38.1433 154.275 40.5971 155.32 41.4565C155.96 42.0062 157.589 42.2595 157.593 41.8178C157.595 41.6479 157.765 41.6156 157.934 41.7191C158.44 42.0297 160.363 39.9754 161.745 37.5762C162.194 36.799 162.641 36.1576 162.743 36.1586C162.845 36.1596 162.934 37.5874 162.985 39.3208C163.037 41.0201 163.221 43.1284 163.383 43.9793C163.578 44.8306 163.706 45.7152 163.738 45.9194C163.77 46.1575 163.904 46.3627 164.005 46.3636C164.141 46.3649 164.273 46.7739 164.269 47.2495C164.264 47.7591 164.463 48.2707 164.699 48.4428C164.969 48.6153 165.036 48.7518 164.866 48.7502C164.662 48.7483 164.863 49.056 165.301 49.4678C165.739 49.8797 166.585 50.2275 167.434 50.2696C168.656 50.3831 168.997 50.2504 170.061 49.1733C170.747 48.5002 171.918 46.7446 172.645 45.3245C173.96 42.8227 174.541 42.4544 174.559 44.1534C174.556 44.4932 174.723 44.7666 174.927 44.7685C175.097 44.7701 175.164 44.9067 175.06 45.1095C174.956 45.2784 175.257 45.8589 175.728 46.3391C176.434 47.0593 176.807 47.1987 177.692 47.0372C178.305 46.9072 178.85 46.6745 178.886 46.505C178.956 46.3018 179.229 46.1684 179.467 46.1707C179.942 46.1752 182.147 43.0023 182.153 42.3568C182.155 42.119 182.431 41.6799 182.775 41.3095C183.358 40.7034 183.392 40.7377 183.584 41.9287C183.714 42.6095 183.912 43.155 184.048 43.1563C184.184 43.1576 184.318 43.3627 184.316 43.6005C184.309 44.348 185.483 45.8881 186.463 46.441C187.613 47.0295 189.889 47.0851 190.438 46.5467C190.678 46.3111 190.848 46.2448 190.847 46.4147C190.841 46.9922 192.931 45.1434 193.93 43.7258C195.136 41.9705 196.038 40.0084 195.769 39.734C195.668 39.6311 195.738 39.36 195.91 39.1238C196.873 37.9777 197.554 30.6792 196.743 30.1958C196.54 30.058 196.475 29.7515 196.579 29.5147C196.824 28.8375 195.454 26.3442 194.675 26.065C193.151 25.5408 192.233 25.702 191.307 26.6106C190.758 27.115 190.344 27.7906 190.341 28.0624C190.338 28.4361 189.997 28.6028 189.248 28.6636C188.637 28.6578 187.957 28.7193 187.753 28.7174C187.073 28.7789 185.223 30.3242 185.219 30.7999C185.216 31.0717 185.078 31.2742 184.909 31.2726C184.501 31.2687 183.379 34.8936 183.611 35.5074C183.711 35.7801 183.64 36.0852 183.469 36.1856C183.264 36.3195 183.124 36.7599 183.119 37.2355C183.115 37.6772 182.627 38.9637 182.073 40.0796C181.485 41.1953 181.068 42.1427 181.101 42.2109C181.202 42.3138 180.515 43.1567 179.52 44.1326C177.977 45.6469 177.444 44.5206 177.786 40.6505C177.981 38.0022 178.124 37.256 178.688 35.1548C178.865 34.409 178.974 33.6965 178.873 33.5597C178.806 33.4231 178.876 33.2199 179.047 33.1196C179.286 32.952 179.743 31.4274 179.96 30.0364C179.996 29.8329 180.135 29.4265 180.274 29.122C180.447 28.7839 180.592 27.8679 180.599 27.0865C180.679 25.8301 180.546 25.591 179.533 24.8679C178.892 24.4201 177.876 24.0707 177.23 24.0646C176.211 24.0549 176.074 24.1555 176.136 24.8016C176.2 25.244 176.019 26.3635 175.773 27.2785C175.56 28.2278 175.277 29.4483 175.203 29.9912C175.13 30.5681 175.024 31.0088 174.99 31.0085C174.956 31.0082 174.884 31.3813 174.846 31.8566C174.807 32.3319 174.59 33.7908 174.374 35.0799C174.157 36.4029 174.042 37.7609 174.141 38.1356C174.239 38.5442 173.75 39.8987 173.023 41.3528C172.33 42.7392 171.74 44.0927 171.738 44.2965C171.736 44.5343 171.598 44.7369 171.462 44.7356C171.326 44.7343 171.085 45.0718 170.945 45.4782C170.839 45.8849 170.254 46.6948 169.705 47.2332C168.744 48.2434 168.71 48.2431 168.241 47.627C167.536 46.703 167.66 37.2586 168.418 32.4751C168.709 30.5072 169.034 28.5056 169.106 28.0306C169.361 26.1983 171.75 17.9307 172.901 14.8497C174.086 11.6671 174.121 11.6335 175.242 11.6102C175.888 11.6163 176.566 11.6907 176.735 11.8282C177.14 12.1039 179.649 12.6713 180.092 12.5736C180.228 12.5409 180.566 12.68 180.802 12.8861C181.038 13.0922 181.784 13.2692 182.463 13.3096C183.142 13.3501 183.684 13.4911 183.683 13.661C183.681 13.8308 183.816 13.9001 183.953 13.7995C184.124 13.6991 184.904 13.8425 185.751 14.0883C186.564 14.3339 187.446 14.4782 187.685 14.4125C187.924 14.3128 188.296 14.4183 188.533 14.5904C188.769 14.7965 190.567 15.0854 192.536 15.2061C195.354 15.4027 196.408 15.3448 197.363 14.9801C198.659 14.4488 199.485 13.3354 199.187 12.5171C199.088 12.2443 199.192 12.0415 199.395 12.0434C199.599 12.0453 199.568 11.7393 199.267 11.2947C198.965 10.8501 198.424 10.5392 197.949 10.5347C197.269 10.5282 197.132 10.6968 197.124 11.4782C197.085 12.0894 196.739 12.7317 196.122 13.2355C194.889 14.311 192.613 14.2554 187.086 13.0817C184.746 12.5838 182.61 12.1218 182.339 12.0513C182.068 12.0148 181.593 11.8743 181.322 11.7698C181.052 11.6314 180.442 11.4897 179.966 11.4512C179.491 11.3787 178.983 11.238 178.78 11.1341C178.307 10.8238 175.832 10.3246 175.287 10.4214C174.743 10.5182 174.859 9.05826 175.406 8.68972C176.021 8.25386 175.813 5.12603 175.107 4.33786C174.334 3.48109 172.948 2.72044 172.336 2.81656C172.097 2.84827 171.689 2.87837 171.417 2.90977C171.111 2.94083 170.972 3.31326 171.033 4.02735C171.061 4.6392 170.884 5.45295 170.642 5.85838C170.367 6.22951 170.26 6.6702 170.395 6.77341C170.496 6.91028 170.427 7.01155 170.223 7.00962C169.985 7.00736 169.849 7.10799 169.881 7.24421C170.01 7.99292 169.358 8.63229 168.681 8.45597C163.664 7.18516 157.014 6.23861 157.381 6.85369C157.515 7.0928 157.174 7.19149 156.325 7.14945C155.646 7.10902 154.999 7.27276 154.929 7.47596C154.859 7.71313 154.586 7.88042 154.348 7.87816C153.532 7.87041 152.925 11.0245 153.633 11.6088C154.509 12.3307 156.218 11.3276 155.956 10.2378C155.858 9.86315 156.033 9.28721 156.342 8.95038C156.857 8.41164 157.436 8.3152 159.882 8.30446C161.513 8.31994 163.312 8.47294 163.854 8.64797C164.43 8.82332 165.243 9.03491 165.718 9.10737C168.296 9.57355 168.77 9.78191 168.661 10.5284C168.589 10.9014 168.275 11.8158 167.962 12.5264C167.65 13.2369 167.406 13.9141 167.438 14.0503C167.471 14.1866 167.296 14.7285 167.053 15.2698C166.566 16.4204 165.264 21.1988 165.117 22.3186C165.079 22.76 164.903 23.3699 164.765 23.6744C164.591 24.0125 164.447 24.8945 164.44 25.6419C164.399 26.389 164.257 26.9993 164.155 26.9983C164.053 26.9973 163.948 27.404 163.909 27.9133C163.894 29.4761 163.474 30.7972 162.402 32.7917C161.848 33.8397 161.499 34.7877 161.634 34.9249C161.735 35.0278 161.666 35.1291 161.462 35.1271C161.122 35.1239 160.498 36.4091 160.63 36.886C160.662 37.0562 160.525 37.1569 160.355 37.1552C160.152 37.1533 160.014 37.3219 160.013 37.4918C160.007 38.0693 158.223 39.8531 157.646 39.8477C157.238 39.8438 157.105 39.5028 157.15 38.4159C157.157 37.6005 157.303 36.5826 157.443 36.1083C157.584 35.6339 157.727 34.8878 157.799 34.4128C157.872 33.9378 158.013 33.3276 158.118 33.0568C159.059 30.5854 160.147 26.8583 160.26 25.7042C160.447 23.9052 159.643 22.7083 157.881 22.2159C156.458 21.7947 155.707 22.1613 155.97 23.1491C156.232 24.1709 155.379 24.5366 153.82 24.114C153.041 23.8688 152.158 23.8264 151.782 23.9928C151.441 24.1254 151.032 24.2575 150.931 24.2225C150.795 24.1873 150.077 24.6901 149.323 25.3285C148.09 26.3701 145.882 29.9506 145.7 31.24C145.629 31.5112 145.523 31.9179 145.386 32.0865C144.834 32.9306 144.444 38.2953 144.845 38.9786C144.979 39.1837 144.595 40.2673 144.006 41.417C143.418 42.5326 142.967 43.5137 142.966 43.6156C142.999 43.7178 142.758 44.0213 142.484 44.2905C142.21 44.5597 141.659 45.302 141.279 45.944C140.589 47.0247 139.631 47.6951 139.295 47.3521C138.824 46.872 138.712 44.3906 138.988 40.35C139.453 34.3405 139.491 33.8312 139.769 33.2223C139.907 32.9518 140.086 32.0701 140.161 31.2554C140.237 30.4746 140.38 29.7285 140.517 29.5939C140.62 29.4929 140.725 29.1202 140.728 28.8144C140.731 28.4747 141.225 26.5767 141.822 24.5437C142.419 22.5108 142.946 20.6811 142.982 20.5115C143.051 20.3083 143.33 19.5974 143.643 18.8529C143.955 18.1424 144.234 17.4655 144.235 17.3296C144.236 17.1937 144.793 15.8399 145.453 14.3172C146.113 12.7945 146.532 11.5414 146.396 11.5401C146.261 11.5388 146.33 11.4036 146.501 11.2693C146.706 11.1353 147.294 10.0876 147.848 8.93767C149.338 5.89391 148.848 3.81667 146.346 2.5018C145.095 1.84436 144.484 1.87252 144.272 2.68596ZM154.678 26.7384C154.669 27.6897 151.404 35.1675 150.579 36.213C149.308 37.7299 148.864 37.8955 148.432 36.9401C147.966 35.8824 149.128 31.5784 150.404 29.5858C150.887 28.8429 151.267 28.167 151.268 28.0651C151.269 27.9632 151.681 27.4914 152.229 27.0549C153.291 26.1137 154.686 25.957 154.678 26.7384ZM194.155 27.1813C194.424 27.5236 194.792 28.1047 194.924 28.4797C195.289 29.4345 195.334 35.4148 194.984 36.4648C194.81 36.9388 194.632 37.7526 194.525 38.3292C194.452 38.8721 194.345 39.3807 194.311 39.4144C194.242 39.4817 194.173 39.6509 194.137 39.8544C194.101 40.024 193.997 40.2948 193.961 40.4304C193.926 40.5999 193.856 40.8371 193.82 41.0406C193.745 41.7194 191.476 44.518 190.691 44.9182C189.462 45.5521 188.277 45.0652 187.814 43.8036C186.986 41.5193 187.719 35.8522 189.281 32.4353C189.975 30.879 190.009 30.8793 190.478 31.5973C190.847 32.1104 191.253 32.2842 192.001 32.1894C193.566 32.0004 193.84 31.7312 193.134 30.943C192.462 30.1891 192.307 28.5568 192.76 27.3719C193.109 26.4238 193.483 26.3934 194.155 27.1813Z" fill="#FF4F4F"/>
<path d="M80.4577 10.4722C79.6391 10.8042 78.3705 12.0153 78.5714 12.323C78.672 12.4599 78.5688 12.5948 78.399 12.5932C77.8894 12.5884 77.902 14.8309 78.369 15.7528C78.6032 16.1287 79.0051 16.7441 79.3076 17.0868C79.913 17.7381 82.551 19.0203 83.6706 19.2008C84.0776 19.2726 84.518 19.4127 84.6186 19.5496C84.7532 19.6867 85.1599 19.7925 85.4997 19.7958C85.8394 19.799 86.1105 19.8695 86.1096 19.9714C86.1086 20.0734 85.481 21.7662 84.6805 23.7633C82.9742 28.1301 82.0295 31.0091 81.7063 32.8408C81.3456 35.0459 81.1127 38.1016 81.2784 38.5448C81.3441 38.7833 81.4434 39.0561 81.4758 39.2262C81.5709 39.9407 82.6086 41.5814 83.2842 41.9955C84.3649 42.6853 86.1629 42.9742 86.9482 42.574C87.8021 42.1064 87.7765 41.2228 86.8932 41.2144C85.2624 41.1989 84.8245 37.2194 85.9553 32.6433C86.3089 31.1857 86.5247 29.9306 86.4234 29.8617C86.3224 29.7588 86.4269 29.4879 86.5991 29.2517C86.8744 28.8806 87.9916 25.7314 88.241 24.5106C88.3112 24.2734 88.5212 23.6298 88.7641 23.0885C89.3556 21.6331 89.7826 19.5986 89.548 19.2566C89.2801 18.8463 86.8068 18.1093 85.6517 18.0984C84.7684 18.09 84.7687 18.056 84.7903 15.7798C84.8026 14.4888 84.7116 13.3327 84.577 13.1955C84.4084 13.058 84.2751 12.7849 84.2767 12.615C84.2444 12.4448 84.2133 12.1388 84.1809 11.9686C84.1515 11.4926 82.0907 10.2499 81.4449 10.2777C81.1731 10.2751 80.7305 10.3729 80.4577 10.4722ZM82.8796 13.0435C83.2485 13.5566 83.6112 14.7153 83.7038 15.7015C83.8575 17.4018 83.8229 17.4694 83.0428 17.3261C82.6015 17.2879 81.7906 16.8046 81.2179 16.2895C80.6795 15.7407 80.1398 15.3279 80.0379 15.3269C79.6302 15.323 79.7217 12.8436 80.0999 12.3715C80.7182 11.6639 82.1082 11.9829 82.8796 13.0435Z" fill="#FF4F4F"/>
<path d="M76.1101 21.0657C76.0008 21.8461 75.7241 22.3531 75.5552 22.2496C75.0149 21.9047 72.1621 21.7757 71.9553 22.0795C71.8518 22.2484 71.6473 22.3144 71.5124 22.2112C71.0057 21.9006 68.9857 23.5123 67.6443 25.2324C66.4747 26.7502 65.2258 29.4565 64.7308 31.4904C63.6693 35.9313 63.6969 36.6111 65.0083 38.0506C65.6134 38.7358 66.1887 38.9791 67.1059 38.9879C68.6348 39.0024 70.5457 38.1371 70.8255 37.2904C70.9647 36.9519 71.1714 36.6481 71.3073 36.6494C71.4432 36.6507 71.9942 35.8744 72.5125 34.962C73.0311 34.0156 73.5139 33.2726 73.6158 33.2736C73.7177 33.2746 73.6789 33.7839 73.5715 34.3605C73.4638 34.971 73.282 36.2264 73.205 37.177C72.8657 40.7074 72.623 41.2148 71.023 41.5393C70.24 41.7018 69.5919 41.9674 69.5903 42.1373C69.5887 42.3072 69.4522 42.3738 69.3172 42.2706C69.1483 42.1671 68.2961 42.4648 67.4426 42.8984C66.555 43.3316 65.839 43.5967 65.8397 43.5287C65.8406 43.4268 64.9868 43.8944 63.9614 44.5302L62.1155 45.7018L61.7538 44.4413C61.0655 41.7845 61.0399 40.9009 61.4378 38.3564C61.6555 36.8975 61.9438 35.1674 62.0179 34.5226C62.1259 33.878 62.3763 32.5553 62.5549 31.6396C62.7678 30.6903 63.0162 29.5714 63.0887 29.0964C63.1612 28.6214 63.5131 27.3337 63.8296 26.2154C64.4624 23.979 64.3433 22.2111 63.469 21.2514C62.8639 20.5661 61.303 20.3474 61.2972 20.959C61.2956 21.1288 61.1588 21.2295 61.0238 21.1263C60.8549 21.0227 59.9318 21.6255 58.9725 22.4658C57.0199 24.1461 54.6075 27.7248 53.183 31.041C52.6957 32.2595 52.0707 33.6806 51.8274 34.2559C51.5844 34.7972 51.2007 35.8468 50.9564 36.5241C50.5009 37.9807 49.921 38.2131 49.933 36.956C49.9491 35.2574 51.0578 29.4239 51.9342 26.5782C52.3911 24.9856 52.8479 23.393 52.9194 23.0199C52.9906 22.6809 53.1316 22.1386 53.2021 21.8674C53.3791 21.1216 50.6625 20.9599 49.1949 21.6595C48.2051 22.1258 48.0676 22.2943 48.3679 22.8748C48.6015 23.3187 48.6297 23.9306 48.3841 24.7437C48.2081 25.3876 48.1327 26.1683 48.2321 26.4411C48.3314 26.7138 48.2615 26.917 48.0577 26.9151C47.7519 26.9122 47.5733 27.8279 47.5896 29.6967C47.5844 30.2403 47.4786 30.647 47.3427 30.6457C47.0709 30.6432 46.9985 31.1181 46.6802 36.0078C46.4829 38.8939 46.5438 39.642 46.979 40.3257C48.2513 42.3084 50.9148 40.9067 52.1009 37.6562C53.2866 34.4396 56.7543 27.0656 57.4063 26.3923C57.6463 26.1567 58.0941 25.5154 58.439 24.9751C59.4404 23.2857 59.5372 23.8303 58.6313 26.2001C58.1777 27.4529 57.8955 28.5375 57.9625 28.64C58.0638 28.7089 57.9923 29.082 57.7852 29.4198C57.6121 29.7579 57.4015 30.4694 57.2948 30.9781C57.222 31.487 56.9729 32.6739 56.7603 33.5892C56.2631 35.8609 56.4014 42.7595 56.9725 43.4445C57.2414 43.7529 57.3411 43.9916 57.2052 43.9903C56.8315 43.9868 58.5678 47.1971 59.3087 47.8837L60.0161 48.536L59.1929 49.3436C58.7128 49.8147 58.2291 50.6595 58.0877 51.2358C57.98 51.8463 57.7017 52.5232 57.4613 52.7928C56.911 53.5011 56.9102 60.7381 57.481 61.457C57.7159 61.7651 57.8495 62.0042 57.7136 62.0029C57.5778 62.0016 57.8101 62.5814 58.177 63.2984C60.5789 67.976 64.7157 68.8647 68.2812 65.5009C70.064 63.819 72.6578 59.0189 73.4003 55.9681C73.7532 54.5784 73.7189 54.612 73.9965 54.0031C74.2748 53.3262 75.3382 48.6815 75.5203 47.3921C75.5938 46.8152 75.8099 45.5261 76.0234 44.5088C76.3799 42.7454 76.4828 42.6445 77.3318 42.6865C77.8411 42.7253 78.2481 42.7971 78.2478 42.8311C78.2475 42.8651 78.5186 42.9356 78.8237 43.0065C81.1977 43.4707 86.1224 47.2549 86.6835 48.9931C86.7819 49.3677 87.0164 49.7097 87.1523 49.711C87.2882 49.7123 87.4222 49.9174 87.4542 50.1216C87.452 50.3594 87.6115 51.4482 87.7714 52.503C87.9623 53.8639 87.9222 54.5091 87.6838 54.5748C87.4789 54.6747 87.4434 54.8443 87.5776 55.0154C88.0488 55.4956 91.3792 55.4253 91.9958 54.8875C93.2968 53.8466 92.3394 50.9155 89.8175 48.1394C88.3718 46.5288 85.5383 44.3613 85.5338 44.837C85.5325 44.9729 85.3969 44.9376 85.2629 44.7325C84.9284 44.1857 81.7497 42.5925 80.7657 42.4473C80.3247 42.3752 79.7824 42.2341 79.6139 42.0966C79.411 41.9927 78.6995 41.7821 77.9533 41.6391L76.6649 41.3551L76.9548 39.4551C77.1007 38.4032 77.2482 37.1815 77.3206 36.7065C77.3931 36.2315 77.7884 33.9588 78.1844 31.6182C78.6144 29.2778 79.043 27.0734 79.0805 26.7C79.152 26.327 79.3636 25.5135 79.5736 24.87C79.7832 24.2604 79.9249 23.6501 79.8923 23.5139C79.8592 23.4117 79.9647 23.0389 80.1035 22.7345C80.4847 21.9566 79.8152 20.897 78.5979 20.2738C76.8397 19.3738 76.3624 19.5391 76.1101 21.0657ZM75.2262 24.6928C75.5246 25.4771 75.4178 25.9857 74.8274 27.3392C74.411 28.2526 74.0285 29.1663 73.9926 29.3699C73.7471 30.183 73.2624 31.1297 72.6768 31.9736C72.2979 32.5136 72.1242 32.9197 72.2601 32.921C72.396 32.9223 72.2575 33.1928 71.9485 33.5296C71.6055 33.8661 71.4658 34.2725 71.6007 34.3757C71.7013 34.5126 71.6324 34.6139 71.4286 34.6119C71.1908 34.6097 71.019 34.8119 71.017 35.0157C70.9766 35.6949 69.4727 36.632 68.9663 36.2874C68.5273 36.0114 68.5625 35.8758 69.3383 32.8932C69.5502 32.0458 69.7968 31.1308 69.8673 30.8596C70.1523 29.4693 72.4016 25.1756 73.1551 24.5372C74.2859 23.5286 74.7952 23.5675 75.2262 24.6928ZM72.3691 42.9112C72.503 43.1163 72.4312 43.5234 72.2238 43.8951C72.0507 44.2333 71.9792 44.6063 72.0465 44.6749C72.1475 44.7778 72.0035 45.6259 71.7227 46.5745C71.4758 47.5235 71.3312 48.4395 71.4315 48.6104C71.5319 48.7812 71.461 49.0863 71.2889 49.3225C70.9449 49.761 69.6075 54.6409 69.7395 55.0499C69.7719 55.2201 69.669 55.321 69.4651 55.3191C69.2953 55.3175 69.1231 55.5537 69.1206 55.8255C69.1177 56.1313 68.6314 57.2479 68.0772 58.3638C67.4889 59.4795 67.1065 60.3932 67.2084 60.3942C67.4463 60.3965 66.8623 61.0704 65.1814 62.7533C62.7461 65.1765 60.542 64.7139 59.179 61.5411C58.3811 59.6988 58.0237 54.395 58.6391 53.9931C58.81 53.8928 58.9488 53.5884 58.9513 53.3166C58.9539 53.0448 59.3719 51.9615 59.8912 50.9471C60.6189 49.459 60.9275 49.1562 61.5038 49.2976C61.9105 49.4034 62.6224 49.58 63.131 49.6868C63.7752 49.8288 64.2181 49.6971 64.7669 49.1587C65.6586 48.2837 65.5279 47.7389 64.4423 47.5587C63.0513 47.3416 63.0215 46.8996 64.2876 45.9603C65.7248 44.8867 70.4681 42.7233 70.7374 42.9976C70.838 43.1345 70.9406 43.0675 70.9425 42.8637C70.9467 42.422 72.0335 42.4663 72.3691 42.9112Z" fill="#FF4F4F"/>
<path d="M235.789 22.3782C235.309 22.7474 234.237 24.8098 234.058 25.6915C233.988 25.9287 233.848 26.369 233.743 26.6398C233.605 26.9103 233.429 27.5203 233.357 27.9952C233.25 28.4699 233.178 28.9109 233.143 29.0125C233.074 29.1138 233.073 29.3176 233.105 29.4539C233.138 29.5901 232.998 29.9965 232.825 30.3006C232.652 30.6387 232.406 31.5198 232.297 32.2663C232.188 32.9787 231.937 34.4374 231.723 35.4546C231.544 36.4722 231.291 37.9988 231.215 38.8475C231.105 39.6959 230.884 41.5285 230.701 42.9198C230.261 46.3133 230.32 47.1973 231.196 48.055C231.6 48.4326 231.938 48.6397 231.939 48.5038C231.94 48.4018 232.177 48.472 232.447 48.7124C233.121 49.2964 234.28 48.8318 234.698 47.8164C235.046 46.8684 234.815 46.2207 234.268 46.5552C233.824 46.8228 234.19 44.0742 235.036 40.8204C235.212 40.1426 235.252 39.5653 235.15 39.5644C235.048 39.5634 235.117 39.3942 235.357 39.1586C235.597 38.9231 235.772 38.483 235.774 38.1773C235.783 37.294 238.099 29.5692 239.143 26.929C239.665 25.6088 240.252 24.663 240.524 24.6656C241.373 24.6737 241.045 23.4814 240.031 22.8602C238.815 22.1351 236.439 21.8747 235.789 22.3782Z" fill="#FF4F4F"/>
<path d="M223.139 27.0488C221.469 27.6105 219.683 29.5642 219.122 31.3936C218.456 33.5958 218.673 39.306 219.446 40.2647C219.614 40.4701 219.713 40.7429 219.61 40.8438C219.507 40.9108 219.604 41.5233 219.801 42.1707C220.393 44.2829 220.391 44.5207 219.489 46.4149C219.038 47.4299 218.586 48.4449 218.55 48.6824C218.514 48.9199 218.375 49.2923 218.237 49.4949C217.788 50.2041 217.718 54.0089 218.12 54.5903C218.523 55.1717 220.999 55.535 221.004 55.0254C221.006 54.8555 221.109 54.7546 221.279 54.7562C222.839 55.0088 225.923 52.252 226.316 50.2511C226.673 48.4537 226.271 44.2708 225.603 43.0073C225.403 42.6317 225.271 42.2567 225.238 42.0865C225.145 41.2022 224.747 40.1451 224.509 40.1429C224.339 40.1412 224.239 40.0384 224.274 39.8688C224.379 39.564 223.223 36.0195 222.888 35.5406C222.754 35.3355 222.656 34.9608 222.658 34.689C222.627 34.4169 222.535 33.3967 222.442 32.4784C222.189 30.5054 222.78 29.084 223.799 29.0937C224.342 29.0988 224.476 29.304 224.434 30.1869C224.356 31.2055 224.457 31.3084 225.341 31.3168C226.53 31.3281 227.459 30.1137 227.302 28.6852C227.117 26.7808 225.593 26.1887 223.139 27.0488ZM220.723 48.8729C220.703 51.0133 220.632 51.2844 219.672 52.1587C218.095 53.6387 217.906 52.1419 219.293 49.1651C219.71 48.2517 220.058 47.3037 220.061 47.0319C220.063 46.7601 220.235 46.5579 220.405 46.5595C220.609 46.5614 220.736 47.5479 220.723 48.8729Z" fill="#FF4F4F"/>
<path d="M211.714 27.9596C208.362 30.2382 205.258 35.1693 202.952 41.8069C201.869 44.9224 201.256 45.1205 201.555 42.2693C201.668 41.0811 201.923 39.2828 202.136 38.2655C202.316 37.2479 202.393 36.2973 202.293 36.1265C202.192 35.9896 202.295 35.8547 202.499 35.8566C202.737 35.8589 202.841 35.622 202.742 35.3493C202.608 35.0762 202.75 34.432 203.027 33.9589C203.303 33.4519 203.444 32.9096 203.344 32.7388C203.244 32.5679 203.315 32.2628 203.521 32.0269C203.693 31.7907 204.006 30.9783 204.183 30.2664C204.36 29.5206 204.572 28.6732 204.642 28.4021C204.853 27.6566 201.899 27.4926 200.533 28.1932C199.509 28.7271 199.475 28.7607 199.977 29.547C200.278 29.9915 200.376 30.4341 200.205 30.5345C199.932 30.7357 199.292 33.6516 199.389 34.2302C199.421 34.3664 199.316 34.7731 199.109 35.1109C198.728 35.8548 198.398 38.332 198.117 42.8822C197.992 45.3953 198.052 46.2113 198.487 46.8949C199.458 48.3991 201.808 47.7759 202.915 45.7478C203.192 45.2068 203.299 44.6982 203.198 44.5613C203.063 44.4581 203.132 44.3568 203.336 44.3588C203.54 44.3607 203.815 43.9556 203.99 43.4136C204.131 42.9053 204.271 42.431 204.306 42.3294C205.317 39.6208 207.603 35.0557 208.983 32.8603C209.638 31.8472 210.157 30.9008 210.091 30.7303C210.058 30.594 210.195 30.4934 210.365 30.495C210.874 30.4999 210.766 31.1444 210 33.1418C209.617 34.1234 209.404 35.1067 209.504 35.3116C209.637 35.5167 209.567 35.7539 209.328 35.8875C209.123 36.0215 208.914 36.5631 208.807 37.1397C208.734 37.6826 208.591 38.3608 208.487 38.6316C208.033 39.8505 207.589 43.7536 207.668 46.0987C207.743 48.9875 208.265 51.2689 208.971 52.0231C209.24 52.2974 209.475 52.6734 209.473 52.8433C209.466 53.6247 211.188 54.6943 212.783 54.8793C214.209 55.0288 214.618 54.9307 215.201 54.3587C216.127 53.4501 216.131 52.9745 215.146 52.9651C214.161 52.9558 212.443 51.3425 212.216 50.2191C211.926 48.5855 212.225 42.0988 212.636 41.7289C212.739 41.628 213.337 39.5611 213.971 37.1547C214.64 34.7148 215.239 32.444 215.344 32.0713C215.942 29.9704 215.884 28.9505 215.076 28.0934C214.067 27.0306 213.15 26.9879 211.714 27.9596Z" fill="#FF4F4F"/>
<path d="M229.873 51.4061C229.665 51.7779 229.594 52.083 229.73 52.0843C229.832 52.0853 229.796 52.2888 229.624 52.491C229.04 53.233 229.156 55.2727 229.791 56.4C231.129 58.6212 233.481 57.862 233.813 55.1131C233.997 53.5519 233.467 52.1878 232.287 51.1573C231.546 50.5386 230.288 50.6286 229.873 51.4061Z" fill="#FF4F4F"/>
</svg>
