<svg width="17" height="22" viewBox="0 0 17 22" fill="none" xmlns="http://www.w3.org/2000/svg">
<g clip-path="url(#clip0_46_56)">
<path d="M8.26917 10.1095C10.6277 10.9174 13.1836 9.69198 13.9781 7.37254C14.7726 5.0531 13.5047 2.51794 11.1462 1.7101C8.78767 0.902264 6.2317 2.12766 5.43723 4.44711C4.64277 6.76655 5.91067 9.30171 8.26917 10.1095Z" fill="#FF6C6C"/>
<path d="M6.25883 2.66272C6.86013 2.00821 7.61958 1.61705 8.48751 1.44622C9.82995 1.18238 11.0521 1.4947 12.1434 2.32306C12.1873 2.35617 12.2229 2.40002 12.2633 2.43986C12.0391 2.51347 11.8186 2.42889 11.6027 2.4013C10.307 2.24016 9.08213 3.30525 9.10789 4.58951C9.11769 5.06776 9.09932 5.54768 9.20872 6.02047C9.31271 6.46541 9.47757 6.8837 9.72253 7.2729C10.0722 7.88001 10.7016 8.09334 11.351 7.87929C12.0275 7.65646 12.6893 7.39582 13.3532 7.13928C13.7627 6.98103 13.9771 6.61688 14.2381 6.27436C14.3757 6.20841 14.4149 6.1947 14.5347 6.21424C14.9364 6.42422 15.129 6.77172 15.1795 7.19833C15.2624 7.89611 14.7963 8.45448 14.2124 8.61856C14.1196 8.64444 14.0728 8.69397 14.0303 8.76423C13.8412 8.7458 13.6513 8.74634 13.4607 8.74891C12.0462 8.76307 10.6318 8.77385 9.21735 8.7914C8.94161 8.7942 8.66766 8.7716 8.3965 8.73752C7.29435 8.59519 6.36487 7.6131 6.32271 6.5177C6.27583 5.28839 6.26912 4.05928 6.24181 2.82989C6.24028 2.77396 6.25659 2.71962 6.25608 2.66404L6.25883 2.66272Z" fill="#FF6C6C"/>
<path d="M6.25886 2.66272C6.339 2.72748 6.30815 2.81755 6.30996 2.89619C6.33546 4.04694 6.36405 5.19875 6.37925 6.34936C6.39508 7.51828 7.24045 8.49418 8.41353 8.68115C8.62735 8.71481 8.84571 8.72516 9.06239 8.72362C10.6437 8.71234 12.2247 8.69529 13.805 8.68366C13.8833 8.68333 13.9968 8.62723 14.0327 8.76393C13.865 9.24695 13.5062 9.55937 13.0809 9.81399C12.9286 9.98005 12.7166 10.0182 12.5102 10.0335C12.1269 10.0616 11.7402 10.0829 11.3771 9.9043C11.2698 9.85171 11.1942 9.88799 11.1252 9.97518C10.9694 10.1717 10.7824 10.3349 10.5687 10.4686C10.2681 10.6144 9.96659 10.7362 9.61631 10.7451C9.20662 10.7563 8.8243 10.6909 8.46403 10.4974C8.23987 10.3664 8.03779 10.2078 7.87394 10.0081C7.78809 9.90293 7.70403 9.88318 7.58605 9.94566C7.44433 10.0204 7.28832 10.0563 7.13095 10.0894C6.81741 10.0985 6.50241 10.1353 6.19263 10.0428C6.0832 10.0098 5.98065 9.97018 5.90402 9.88174C5.44502 9.63407 5.08109 9.29684 4.88246 8.80931C4.84226 8.70848 4.75435 8.71003 4.67819 8.68733C4.09089 8.50878 3.70176 7.99671 3.69751 7.39485C3.69424 6.80689 4.0942 6.29712 4.68127 6.12054C4.79435 6.08578 4.96305 6.16053 5.01502 6.0189C5.05278 5.91537 5.01439 5.78576 5.01545 5.66853C5.03155 4.50375 5.42384 3.49272 6.25748 2.66338L6.25886 2.66272Z" fill="#FF4F4F"/>
<path d="M8.44599 10.4426C8.58843 10.4631 8.69868 10.5642 8.83489 10.5996C9.3588 10.7349 9.87349 10.7461 10.3684 10.4995C10.4296 10.4685 10.4963 10.4484 10.5613 10.4231C10.5487 10.6043 10.3867 10.6777 10.284 10.7895C10.0315 11.0637 10.0234 11.0033 10.2932 11.263C10.4945 11.4575 10.7023 11.6462 10.8981 11.8467C11.0137 11.9655 11.0948 11.9605 11.2085 11.8434C11.7091 11.3251 12.2176 10.814 12.7233 10.3009C12.7763 10.2467 12.8239 10.185 12.8968 10.1535C12.9357 10.1374 12.9821 10.1261 12.9736 10.1978C12.8644 10.6173 12.7501 11.0349 12.6073 11.4451C12.4061 11.7538 12.1122 11.981 11.8644 12.2478C11.5736 12.5598 11.5687 12.4767 11.873 12.7799C11.9658 12.8716 12.0833 12.9447 12.1317 13.0754C12.0911 13.3182 12.0082 13.5499 11.9309 13.7824C11.8275 13.8057 11.7807 13.7207 11.7222 13.6668C11.5465 13.5048 11.3744 13.3396 11.2053 13.172C11.1169 13.0841 11.0448 13.0797 10.9573 13.1707C10.7113 13.4257 10.463 13.6776 10.2118 13.9274C10.1364 14.0033 10.1362 14.0609 10.2153 14.1355C10.4765 14.3798 10.7339 14.6286 10.991 14.8783C11.0824 14.9673 11.1538 14.9635 11.2379 14.8724C11.3416 14.761 11.446 14.6475 11.5624 14.5494C11.5993 14.519 11.6559 14.4209 11.7073 14.5459C11.5982 14.9653 11.4839 15.383 11.3411 15.7931C11.2326 15.9923 11.0526 16.1285 10.9 16.2888C10.7142 16.4852 10.5203 16.6755 10.3308 16.8695C10.1703 17.0328 10.1751 17.0288 10.3295 17.189C10.4838 17.3493 10.6798 17.4719 10.7901 17.6736C10.7471 17.9167 10.6759 18.1512 10.5897 18.3829C10.4856 18.4083 10.4405 18.3216 10.3816 18.2686C10.1526 18.0613 9.94315 17.8335 9.70272 17.6392C9.60577 17.5664 9.56257 17.6557 9.51297 17.7031C9.32041 17.8927 9.13332 18.0898 8.94076 18.2794C8.88495 18.3349 8.8421 18.4197 8.73778 18.3987C8.64512 18.1691 8.55761 17.9379 8.51238 17.694C8.60022 17.4979 8.78156 17.3814 8.91974 17.2297C9.09101 17.0419 9.09651 17.0392 8.91576 16.8654C8.65936 16.617 8.40124 16.3703 8.14278 16.1246C8.04555 16.0325 7.9552 15.9371 7.88345 15.8243C7.72749 15.417 7.58872 15.0031 7.47057 14.5827C7.50147 14.4757 7.55825 14.5449 7.5949 14.5722C7.69562 14.6474 7.78082 14.741 7.87188 14.8276C8.00836 14.9573 8.13942 14.9584 8.26504 14.8311C8.40078 14.6933 8.53754 14.5558 8.67157 14.4163C8.92234 14.1698 8.91855 13.9223 8.66021 13.674C8.53047 13.5493 8.39935 13.4253 8.26272 13.3072C8.22918 13.2709 8.19668 13.2349 8.16314 13.1985C8.07828 13.1039 8.00307 13.1086 7.91693 13.199C7.74983 13.3747 7.57896 13.5479 7.40534 13.7191C7.35333 13.7703 7.31154 13.8453 7.21683 13.8264C7.13172 13.5949 7.0339 13.3669 6.98729 13.1237C7.06135 12.9444 7.2224 12.8367 7.35159 12.7046C7.45805 12.5952 7.45246 12.5175 7.34429 12.4103C7.04377 12.1095 6.70088 11.8485 6.44548 11.5032C6.28573 11.0968 6.15314 10.6817 6.03224 10.2626C6.01498 10.1855 6.06917 10.2052 6.10381 10.2181C6.17686 10.2466 6.22679 10.3089 6.2826 10.3608C6.77045 10.8196 7.24176 11.2965 7.74132 11.7447C8.01992 12.0289 7.97481 12.07 8.27902 11.7558C8.47264 11.5564 8.66626 11.357 8.86502 11.1628C8.95492 11.0749 8.95789 11.0058 8.86029 10.9215C8.7538 10.8296 8.65419 10.731 8.55665 10.6298C8.50565 10.5772 8.42784 10.5359 8.4484 10.4423L8.44599 10.4426Z" fill="#D4947B"/>
<path d="M12.9726 10.1975C12.8677 10.1446 12.8447 10.2487 12.802 10.2928C12.2639 10.8333 11.7275 11.3755 11.1983 11.9235C11.0932 12.0323 11.0303 12.0481 10.9153 11.9306C10.6463 11.6553 10.3638 11.3924 10.0824 11.1298C10.004 11.0565 9.99422 11.0113 10.0752 10.9328C10.2439 10.769 10.4007 10.5932 10.5617 10.4221C10.7689 10.25 10.9889 10.0913 11.1369 9.86046C11.1807 9.79293 11.2371 9.77944 11.3166 9.81573C11.9071 10.0858 12.4954 10.0499 13.0803 9.81262C13.0675 9.94732 13.0265 10.0735 12.9729 10.1965L12.9726 10.1975Z" fill="#F4BA97"/>
<path d="M8.73776 18.3987C9.00094 18.1372 9.26413 17.8757 9.52799 17.6156C9.58724 17.5567 9.64938 17.4525 9.7296 17.601C9.9165 18.1059 10.0663 18.622 10.2466 19.1293C10.281 19.227 10.302 19.3269 10.2759 19.4299C10.1008 20.0517 9.92476 20.6732 9.7497 21.2951C9.73218 21.2959 9.71364 21.2963 9.69613 21.2971C9.37712 20.3319 9.05744 19.3653 8.73844 18.4001L8.73776 18.3987Z" fill="#E6A88B"/>
<path d="M11.7087 14.5452C11.5629 14.5111 11.5329 14.649 11.4651 14.7162C11.1141 15.0595 11.1175 15.063 10.7659 14.7266C10.5581 14.5277 10.3531 14.324 10.1401 14.1301C10.0579 14.0544 10.0598 14.0087 10.1366 13.9321C10.4143 13.6586 10.6892 13.383 10.9545 13.0985C11.0558 12.9907 11.1161 13.0159 11.2072 13.1059C11.4434 13.3361 11.6885 13.5569 11.9289 13.7817C11.8546 14.0355 11.781 14.2907 11.7067 14.5445L11.7087 14.5452Z" fill="#F4BA97"/>
<path d="M8.69828 14.4424C8.52704 14.6235 8.35135 14.8007 8.18456 14.9856C8.10495 15.0736 8.04521 15.0735 7.96342 14.9867C7.84226 14.8604 7.71319 14.7404 7.58446 14.6229C7.55638 14.5974 7.53396 14.5219 7.47023 14.5837C7.38554 14.3308 7.3005 14.079 7.21478 13.8257C7.4256 13.6164 7.63814 13.4088 7.84828 13.1981C8.04085 13.0051 8.04016 13.0037 8.22944 13.1963C8.2534 13.2204 8.2715 13.2514 8.29201 13.2788C8.43087 13.6656 8.54017 14.0615 8.6976 14.441L8.69828 14.4424Z" fill="#E6A88B"/>
<path d="M7.71474 11.7819C7.21183 11.3066 6.7103 10.8307 6.20463 10.3601C6.15841 10.3171 6.1316 10.2175 6.03119 10.2623C5.98833 10.1356 5.94685 10.0084 5.90399 9.88174C6.31062 10.0742 6.74199 10.05 7.17263 10.0381C7.23843 10.0776 7.25676 10.145 7.27921 10.2103C7.42787 10.6491 7.57309 11.0878 7.71658 11.5281C7.74413 11.6122 7.78574 11.6988 7.71371 11.7816L7.71474 11.7819Z" fill="#E6A88B"/>
<path d="M10.7911 17.6739C10.5861 17.4839 10.3817 17.2917 10.1742 17.1053C10.1074 17.0451 10.1288 17.0061 10.1802 16.9536C10.5687 16.5677 10.9556 16.1801 11.3421 15.7935C11.1773 16.4256 11.0019 17.0553 10.7908 17.675L10.7911 17.6739Z" fill="#F4BA97"/>
<path d="M7.88204 15.825C8.27813 16.1992 8.67423 16.5735 9.07067 16.9467C9.1412 17.0127 9.13996 17.0767 9.07279 17.1419C8.88575 17.3255 8.69835 17.5101 8.51234 17.694C8.30281 17.0704 8.09294 16.4479 7.88239 15.824L7.88204 15.825Z" fill="#E6A88C"/>
<path d="M12.1306 13.0751C11.956 12.9135 11.7841 12.7506 11.6075 12.5918C11.5451 12.5354 11.5504 12.4965 11.6066 12.4399C11.9417 12.1092 12.2742 11.7765 12.6063 11.4447C12.4675 11.9942 12.3123 12.538 12.1306 13.0751Z" fill="#F4BA97"/>
<path d="M6.44446 11.5029C6.78031 11.818 7.11443 12.1349 7.45063 12.449C7.52629 12.5202 7.53501 12.5853 7.45888 12.6599C7.30043 12.8137 7.14369 12.9692 6.98627 13.1233C6.80567 12.5832 6.62506 12.043 6.44446 11.5029Z" fill="#E6A88C"/>
<path d="M10.2769 19.4302C10.0927 18.8571 9.90839 18.2841 9.72376 17.712C9.71084 17.6725 9.68452 17.6353 9.73064 17.6013C10.0176 17.8613 10.3041 18.1223 10.59 18.3819C10.502 18.7362 10.4171 19.0915 10.2769 19.4302Z" fill="#F4BA97"/>
<path d="M7.71475 11.7819C7.6939 11.5373 7.58061 11.3176 7.51164 11.0859C7.40701 10.7335 7.28656 10.387 7.17265 10.0381C7.33939 9.97425 7.51908 9.94308 7.67425 9.84923C7.74959 9.80381 7.80821 9.83406 7.85231 9.89666C8.0092 10.1234 8.23431 10.2751 8.44599 10.4426C8.6096 10.6061 8.76632 10.7762 8.93924 10.9293C9.04059 11.0194 9.02876 11.0708 8.9392 11.1577C8.67534 11.4144 8.4132 11.6729 8.16578 11.9455C8.04241 12.0807 7.95729 12.0708 7.85367 11.9369C7.81126 11.8828 7.7606 11.8327 7.71475 11.7819Z" fill="#F4BA97"/>
<path d="M9.55032 13.5493C9.51368 13.5186 9.47566 13.4886 9.44108 13.4553C9.16105 13.1887 8.88584 12.918 8.60236 12.6547C8.52019 12.5791 8.49871 12.531 8.58896 12.4421C8.86832 12.1703 9.14048 11.8926 9.40854 11.6102C9.49674 11.5171 9.55375 11.5152 9.64617 11.6079C9.92479 11.8854 10.2103 12.1561 10.4975 12.4253C10.5725 12.495 10.5947 12.5411 10.5103 12.623C10.2268 12.9002 9.9529 13.1863 9.67454 13.4686C9.64113 13.5023 9.61112 13.543 9.55135 13.5496L9.55032 13.5493Z" fill="#F4BA97"/>
<path d="M8.88114 15.231C9.08718 15.0155 9.29492 14.8017 9.49719 14.5838C9.57024 14.5048 9.62167 14.5292 9.68739 14.5924C9.97905 14.8755 10.2721 15.1579 10.5689 15.4359C10.6428 15.5053 10.6434 15.5474 10.5731 15.6183C10.2876 15.9015 10.0054 16.1882 9.72633 16.4793C9.64915 16.5603 9.59354 16.5548 9.52031 16.4766C9.40088 16.3486 9.27593 16.2267 9.15271 16.103C9.02553 15.8232 8.88563 15.5468 8.88114 15.231Z" fill="#F4BA97"/>
<path d="M8.69823 14.4424C8.54599 14.3733 8.56333 14.2153 8.51495 14.0947C8.42878 13.8763 8.36151 13.6498 8.28565 13.4282C8.26761 13.3768 8.23103 13.3258 8.29265 13.2802C8.53778 13.5078 8.78119 13.737 9.02942 13.9622C9.10064 14.0262 9.09123 14.0705 9.02751 14.1289C8.91559 14.2308 8.80742 14.3385 8.69892 14.4438L8.69823 14.4424Z" fill="#F3BA97"/>
<path d="M8.88117 15.231C8.96985 15.5225 9.10976 15.7989 9.15273 16.103C8.99866 15.9621 8.84701 15.8174 8.6888 15.6818C8.57853 15.5875 8.57021 15.5044 8.6828 15.4106C8.75166 15.3539 8.81573 15.2911 8.88151 15.23L8.88117 15.231Z" fill="#E6A88B"/>
</g>
<defs>
<clipPath id="clip0_46_56">
<rect width="11" height="19" fill="white" transform="translate(6.1568) rotate(18.9075)"/>
</clipPath>
</defs>
</svg>
