<svg width="102" height="68" viewBox="0 0 102 68" fill="none" xmlns="http://www.w3.org/2000/svg">
<g clip-path="url(#clip0_46_83)">
<path d="M3.46763 41.0274V54.6537H11.3573C11.8123 54.6537 12.1988 54.8141 12.5176 55.136C12.8354 55.4568 12.9958 55.8473 12.9958 56.3063V57.9034H1.63847C1.16529 57.9034 0.773835 57.744 0.4641 57.4252C0.154364 57.1074 0 56.72 0 56.2649V39.3919H1.82916C2.30234 39.3919 2.6938 39.5463 3.00353 39.855C3.31327 40.1637 3.46763 40.5542 3.46763 41.0274Z" fill="#5F6266"/>
<path d="M19.1935 41.1939C19.1935 41.8315 18.9978 42.3047 18.6064 42.6134C18.2149 42.9231 17.778 43.0775 17.2958 43.0775C16.8135 43.0775 16.3767 42.9231 15.9852 42.6134C15.5937 42.3037 15.398 41.8315 15.398 41.1939C15.398 40.5562 15.5937 40.079 15.9852 39.7602C16.3767 39.4424 16.8135 39.282 17.2958 39.282C17.778 39.282 18.2149 39.4414 18.6064 39.7602C18.9978 40.079 19.1935 40.5562 19.1935 41.1939ZM15.6987 44.7977V56.265C15.6987 56.72 15.8581 57.1074 16.1769 57.4252C16.4947 57.7441 16.8821 57.9035 17.3371 57.9035H18.9211V46.4362C18.9211 45.9812 18.7617 45.5947 18.4429 45.2759C18.1241 44.9581 17.7377 44.7977 17.2827 44.7977H15.6987Z" fill="#5F6266"/>
<path d="M32.0249 57.9034C31.5699 57.9034 31.1875 57.744 30.8778 57.4252C30.568 57.1074 30.4137 56.7291 30.4137 56.2922V50.9137C30.4137 50.4768 30.3592 50.0632 30.2502 49.6717C30.1412 49.2803 29.9728 48.9342 29.7447 48.6346C29.5167 48.3339 29.2352 48.0928 28.8983 47.9112C28.5613 47.7296 28.1749 47.6378 27.738 47.6378C27.3012 47.6378 26.9097 47.7296 26.5636 47.9112C26.2176 48.0928 25.926 48.3339 25.6899 48.6346C25.4528 48.9352 25.2712 49.2813 25.1441 49.6717C25.017 50.0632 24.9534 50.4768 24.9534 50.9137V56.265C24.9534 56.72 24.794 57.1074 24.4752 57.4252C24.1564 57.744 23.77 57.9034 23.3149 57.9034H21.731V44.8259H23.3694C23.8063 44.8259 24.1786 44.9813 24.4883 45.29C24.798 45.5998 24.9524 45.9731 24.9524 46.4089C25.2985 45.7541 25.8029 45.29 26.4678 45.0166C27.1317 44.7432 27.7733 44.607 28.3928 44.607C29.1747 44.607 29.9263 44.7936 30.6457 45.1669C31.364 45.5402 31.9058 46.1728 32.2701 47.0647C32.8522 46.1365 33.508 45.5039 34.2354 45.1669C34.9628 44.83 35.7639 44.6615 36.6376 44.6615C38.494 44.6615 39.8772 45.2033 40.7873 46.2858C41.6973 47.3694 42.1523 48.8929 42.1523 50.8592V57.9034H40.5684C40.1133 57.9034 39.7259 57.744 39.4081 57.4252C39.0893 57.1074 38.9299 56.72 38.9299 56.265V50.8592C38.9299 50.4224 38.8845 50.0127 38.7937 49.6304C38.7019 49.248 38.5566 48.9161 38.3568 48.6336C38.156 48.3521 37.9018 48.1241 37.5921 47.9505C37.2823 47.778 36.909 47.6912 36.4732 47.6912C36.0373 47.6912 35.6408 47.778 35.2857 47.9505C34.9306 48.1241 34.6299 48.3601 34.3847 48.6608C34.1386 48.9615 33.9519 49.3025 33.8248 49.6848C33.6977 50.0672 33.6341 50.4768 33.6341 50.9137V56.2922C33.6341 56.7291 33.4787 57.1074 33.17 57.4252C32.8603 57.744 32.4779 57.9034 32.0229 57.9034H32.0249Z" fill="#5F6266"/>
<path d="M48.2976 52.197C48.4066 53.0344 48.7839 53.7215 49.4306 54.2582C50.0763 54.795 50.9824 55.0634 52.1476 55.0634C53.0214 55.0634 53.8769 54.8545 54.7143 54.4358C55.0241 54.2905 55.3509 54.2451 55.697 54.2996C56.042 54.3541 56.3427 54.5095 56.598 54.7637L57.7451 55.8836C57.0348 56.6302 56.1702 57.1801 55.1512 57.5352C54.1312 57.8903 53.1122 58.0679 52.0932 58.0679C50.946 58.0679 49.923 57.8994 49.022 57.5624C48.1211 57.2255 47.3654 56.7432 46.756 56.1157C46.1456 55.4881 45.6815 54.7365 45.3637 53.8628C45.0449 52.989 44.8855 52.0154 44.8855 50.9409C44.8855 49.8665 45.0449 48.9847 45.3637 48.1291C45.6815 47.2735 46.1416 46.537 46.7429 45.9176C47.3432 45.2991 48.0716 44.8168 48.9272 44.4708C49.7828 44.1247 50.7564 43.9522 51.849 43.9522C52.9417 43.9522 53.9556 44.1257 54.8384 44.4708C55.7212 44.8168 56.4537 45.3304 57.0358 46.0134C57.618 46.6964 58.0417 47.556 58.305 48.5932C58.5684 49.6304 58.637 50.832 58.5098 52.197H48.2986H48.2976ZM55.3146 49.4669C55.2228 48.5932 54.8778 47.9425 54.2775 47.5147C53.6772 47.0869 52.9033 46.873 51.957 46.873C51.0651 46.873 50.3054 47.0869 49.6768 47.5147C49.0493 47.9425 48.6074 48.5932 48.3531 49.4669H55.3156H55.3146Z" fill="#5F6266"/>
<path d="M72.2956 57.9035C71.8224 57.9035 71.4309 57.7441 71.1212 57.4253C70.8115 57.1075 70.6571 56.72 70.6571 56.265V51.0772C70.6571 50.0764 70.3887 49.244 69.852 48.5791C69.3152 47.9153 68.5283 47.5823 67.4901 47.5823C66.9988 47.5823 66.5478 47.6782 66.1382 47.8688C65.7286 48.0595 65.3785 48.3239 65.0869 48.6608C64.7953 48.9978 64.5683 49.3893 64.4039 49.8352C64.2404 50.2812 64.1577 50.7493 64.1577 51.2416V56.265C64.1577 56.72 63.9983 57.1075 63.6795 57.4253C63.3606 57.7441 62.9742 57.9035 62.5192 57.9035H60.9625V44.826H62.4092C62.8643 44.826 63.2507 44.9854 63.5695 45.3042C63.8873 45.623 64.0477 46.0094 64.0477 46.4644V46.6006C64.7207 45.964 65.3997 45.4767 66.0817 45.1397C66.7647 44.8028 67.5153 44.6343 68.3346 44.6343C69.0993 44.6343 69.8177 44.7755 70.4916 45.057C71.1646 45.3395 71.7518 45.7532 72.2522 46.299C72.7526 46.8448 73.1481 47.5188 73.4397 48.3198C73.7302 49.1209 73.8765 50.0309 73.8765 51.0499V57.9025H72.2925L72.2956 57.9035Z" fill="#5F6266"/>
<path d="M86.8754 45.6714V46.3817L80.8693 54.7365H85.2652C85.7383 54.7365 86.1298 54.8908 86.4395 55.2006C86.7493 55.5103 86.9036 55.9018 86.9036 56.375V57.9035H76.7469C76.529 57.9035 76.3373 57.8217 76.1738 57.6573C76.0104 57.4938 75.9277 57.3021 75.9277 57.0842V56.5384L82.1799 47.8012H78.0575C77.6025 47.8012 77.215 47.6418 76.8972 47.323C76.5784 47.0052 76.419 46.6178 76.419 46.1627V44.8522H86.0571C86.2761 44.8522 86.4668 44.9339 86.6302 45.0983C86.7937 45.2618 86.8764 45.4535 86.8764 45.6714H86.8754Z" fill="#5F6266"/>
<path d="M102 44.8521L93.2719 65.1283C93.1438 65.438 92.944 65.6781 92.6716 65.8516C92.3982 66.0242 92.0985 66.1109 91.7706 66.1109H89.3129L92.9349 57.6845L87.7198 44.8521H90.3138C90.678 44.8521 90.9968 44.952 91.2692 45.1528C91.5426 45.3536 91.7424 45.6169 91.8695 45.9448L94.8186 54.1624L98.0128 45.8621C98.1399 45.5523 98.3407 45.3072 98.6131 45.1246C98.8865 44.9429 99.1861 44.8511 99.514 44.8511H101.999L102 44.8521Z" fill="#5F6266"/>
<path d="M19.5789 61.6536H18.0555V61.1048H21.7622V61.6536H20.2327V66.111H19.5789V61.6536Z" fill="#5F6266"/>
<path d="M22.5139 64.4321C22.529 65.3159 23.093 65.6801 23.7478 65.6801C24.2159 65.6801 24.4974 65.5984 24.7436 65.4945L24.8545 65.9626C24.6245 66.0666 24.231 66.1856 23.659 66.1856C22.5522 66.1856 21.8914 65.4572 21.8914 64.3726C21.8914 63.288 22.53 62.4335 23.5773 62.4335C24.7516 62.4335 25.0634 63.4666 25.0634 64.1274C25.0634 64.2616 25.0482 64.3655 25.0412 64.4321H22.5149H22.5139ZM24.4308 63.964C24.4379 63.5473 24.2603 62.9016 23.5248 62.9016C22.8639 62.9016 22.5744 63.51 22.5219 63.964H24.4308Z" fill="#5F6266"/>
<path d="M28.8074 65.9778C28.6369 66.0666 28.2576 66.1857 27.7743 66.1857C26.6897 66.1857 25.9845 65.4502 25.9845 64.3504C25.9845 63.2507 26.7422 62.4416 27.9156 62.4416C28.302 62.4416 28.644 62.5384 28.8216 62.6272L28.6733 63.1327C28.5169 63.0439 28.2717 62.9622 27.9156 62.9622C27.0913 62.9622 26.6453 63.5706 26.6453 64.3212C26.6453 65.1535 27.1801 65.6661 27.8934 65.6661C28.2646 65.6661 28.5098 65.5692 28.6954 65.4875L28.8074 65.9778Z" fill="#5F6266"/>
<path d="M29.9455 60.8364H30.5993V63.0802H30.6144C30.7183 62.8945 30.8818 62.7311 31.0825 62.6191C31.2762 62.5081 31.5063 62.4335 31.7514 62.4335C32.2347 62.4335 33.0065 62.7301 33.0065 63.9711V66.111H32.3528V64.0457C32.3528 63.4666 32.1369 62.9763 31.5204 62.9763C31.0967 62.9763 30.7627 63.2729 30.6437 63.63C30.6063 63.7188 30.5993 63.8157 30.5993 63.9428V66.112H29.9455V60.8374V60.8364Z" fill="#5F6266"/>
<path d="M34.4402 63.4888C34.4402 63.1165 34.4331 62.8128 34.4109 62.5152H34.9901L35.0274 63.1094H35.0425C35.2201 62.7674 35.6368 62.4335 36.231 62.4335C36.7284 62.4335 37.5012 62.7301 37.5012 63.964V66.111H36.8475V64.0376C36.8475 63.4585 36.6326 62.9753 36.0151 62.9753C35.5843 62.9753 35.2494 63.2799 35.1384 63.6432C35.1091 63.7249 35.094 63.8369 35.094 63.9478V66.1089H34.4402V63.4868V63.4888Z" fill="#5F6266"/>
<path d="M42.1826 64.2838C42.1826 65.6136 41.2614 66.1927 40.3928 66.1927C39.4192 66.1927 38.6696 65.4794 38.6696 64.3434C38.6696 63.1397 39.4565 62.4345 40.4523 62.4345C41.4481 62.4345 42.1826 63.1841 42.1826 64.2838ZM39.3304 64.3212C39.3304 65.1081 39.7834 65.7034 40.423 65.7034C41.0627 65.7034 41.5157 65.1162 41.5157 64.307C41.5157 63.6977 41.211 62.9248 40.4382 62.9248C39.6654 62.9248 39.3314 63.6381 39.3314 64.3212H39.3304Z" fill="#5F6266"/>
<path d="M43.3792 60.8364H44.0329V66.111H43.3792V60.8364Z" fill="#5F6266"/>
<path d="M48.7587 64.2838C48.7587 65.6136 47.8376 66.1927 46.9689 66.1927C45.9953 66.1927 45.2457 65.4794 45.2457 64.3434C45.2457 63.1397 46.0326 62.4345 47.0284 62.4345C48.0242 62.4345 48.7587 63.1841 48.7587 64.2838ZM45.9065 64.3212C45.9065 65.1081 46.3595 65.7034 46.9992 65.7034C47.6388 65.7034 48.0918 65.1162 48.0918 64.307C48.0918 63.6977 47.7871 62.9248 47.0143 62.9248C46.2415 62.9248 45.9075 63.6381 45.9075 64.3212H45.9065Z" fill="#5F6266"/>
<path d="M53.0536 62.5162C53.0385 62.7755 53.0244 63.065 53.0244 63.5039V65.5914C53.0244 66.4156 52.8609 66.9211 52.5118 67.2329C52.1627 67.5598 51.6573 67.6637 51.2043 67.6637C50.7513 67.6637 50.2983 67.5598 50.0087 67.366L50.1722 66.8687C50.4093 67.017 50.7805 67.1511 51.2265 67.1511C51.8954 67.1511 52.3857 66.8021 52.3857 65.895V65.4935H52.3706C52.1698 65.8285 51.7834 66.0958 51.2265 66.0958C50.3346 66.0958 49.697 65.3381 49.697 64.3423C49.697 63.1236 50.492 62.4335 51.3163 62.4335C51.9408 62.4335 52.2818 62.7604 52.4382 63.057H52.4533L52.4826 62.5152H53.0546L53.0536 62.5162ZM52.3776 63.9347C52.3776 63.8227 52.3706 63.7269 52.3403 63.6371C52.2213 63.2588 51.9024 62.946 51.4262 62.946C50.8017 62.946 50.3568 63.4737 50.3568 64.305C50.3568 65.0102 50.7139 65.5974 51.4192 65.5974C51.8207 65.5974 52.1839 65.3452 52.3252 64.9285C52.3625 64.8175 52.3776 64.6914 52.3776 64.5794V63.9337V63.9347Z" fill="#5F6266"/>
<path d="M55.1643 61.5053C55.1713 61.7283 55.0079 61.9068 54.7486 61.9068C54.5185 61.9068 54.3551 61.7283 54.3551 61.5053C54.3551 61.2823 54.5256 61.0967 54.7637 61.0967C55.0018 61.0967 55.1653 61.2742 55.1653 61.5053H55.1643ZM54.4368 66.111V62.5152H55.0906V66.111H54.4368Z" fill="#5F6266"/>
<path d="M56.9107 64.4321C56.9259 65.3159 57.4899 65.6801 58.1446 65.6801C58.6128 65.6801 58.8943 65.5984 59.1394 65.4945L59.2514 65.9626C59.0214 66.0666 58.6269 66.1856 58.0559 66.1856C56.9491 66.1856 56.2872 65.4572 56.2872 64.3726C56.2872 63.288 56.9259 62.4335 57.9741 62.4335C59.1475 62.4335 59.4603 63.4666 59.4603 64.1274C59.4603 64.2616 59.4451 64.3655 59.4381 64.4321H56.9117H56.9107ZM58.8277 63.964C58.8347 63.5473 58.6562 62.9016 57.9217 62.9016C57.2598 62.9016 56.9713 63.51 56.9188 63.964H58.8277Z" fill="#5F6266"/>
<path d="M60.5518 65.442C60.7456 65.5682 61.0866 65.7023 61.4135 65.7023C61.8887 65.7023 62.1116 65.4642 62.1116 65.1676C62.1116 64.8559 61.926 64.6844 61.4427 64.5058C60.797 64.2757 60.4923 63.9196 60.4923 63.4888C60.4923 62.9097 60.9605 62.4335 61.7333 62.4335C62.0975 62.4335 62.4163 62.5374 62.6171 62.6564L62.4536 63.1316C62.3124 63.0429 62.0521 62.9238 61.7181 62.9238C61.3317 62.9238 61.1158 63.1468 61.1158 63.4141C61.1158 63.7108 61.3307 63.8449 61.7989 64.0225C62.4234 64.2606 62.7422 64.5724 62.7422 65.1071C62.7422 65.7387 62.2519 66.1846 61.3973 66.1846C61.0038 66.1846 60.6396 66.0878 60.3874 65.9394L60.5508 65.442H60.5518Z" fill="#5F6266"/>
<path d="M65.1807 61.1633C65.4925 61.1118 65.9011 61.0674 66.4207 61.0674C67.0593 61.0674 67.5275 61.2158 67.8251 61.4831C68.1005 61.7202 68.2629 62.0844 68.2629 62.5304C68.2629 62.9763 68.1298 63.3395 67.8765 63.5998C67.5345 63.964 66.9776 64.1497 66.346 64.1497C66.1533 64.1497 65.9747 64.1426 65.8264 64.1053V66.111H65.1807V61.1633ZM65.8264 63.5776C65.9677 63.6149 66.1463 63.6301 66.3612 63.6301C67.141 63.6301 67.6172 63.2517 67.6172 62.5606C67.6172 61.8695 67.1491 61.581 66.4358 61.581C66.1533 61.581 65.9384 61.6032 65.8264 61.6324V63.5786V63.5776Z" fill="#5F6266"/>
<path d="M69.3637 62.5162L70.0699 64.536C70.189 64.8629 70.2848 65.1605 70.3595 65.4571H70.3817C70.4634 65.1605 70.5673 64.8629 70.6864 64.536L71.3845 62.5162H72.0686L70.6571 66.1119H70.0326L68.6655 62.5162H69.3637Z" fill="#5F6266"/>
<path d="M73.473 61.4831V62.5162H74.4093V63.0136H73.473V64.9517C73.473 65.3976 73.5991 65.6499 73.9633 65.6499C74.1348 65.6499 74.261 65.6277 74.3417 65.6055L74.3709 66.0958C74.2448 66.1483 74.044 66.1846 73.7918 66.1846C73.4871 66.1846 73.242 66.0877 73.0856 65.9092C72.8999 65.7165 72.8333 65.3966 72.8333 64.9729V63.0126H72.2764V62.5152H72.8333V61.6526L73.472 61.4821L73.473 61.4831Z" fill="#5F6266"/>
<path d="M76.7429 61.1048H77.3886V65.5692H79.5285V66.112H76.7429V61.1048Z" fill="#5F6266"/>
<path d="M81.0146 61.4831V62.5162H81.9509V63.0136H81.0146V64.9517C81.0146 65.3976 81.1407 65.6499 81.505 65.6499C81.6765 65.6499 81.8026 65.6277 81.8833 65.6055L81.9126 66.0958C81.7864 66.1483 81.5857 66.1846 81.3334 66.1846C81.0288 66.1846 80.7836 66.0877 80.6272 65.9092C80.4416 65.7165 80.375 65.3966 80.375 64.9729V63.0126H79.8181V62.5152H80.375V61.6526L81.0136 61.4821L81.0146 61.4831Z" fill="#5F6266"/>
<path d="M85.7918 60.8364V65.1828C85.7918 65.5016 85.7989 65.8668 85.8211 66.111H85.2339L85.2046 65.4864H85.1895C84.9887 65.888 84.5508 66.1927 83.9637 66.1927C83.095 66.1927 82.4261 65.4572 82.4261 64.3655C82.419 63.169 83.1616 62.4345 84.0383 62.4345C84.5882 62.4345 84.9595 62.6938 85.1229 62.9843H85.138V60.8374H85.7918V60.8364ZM85.138 63.9781C85.138 63.8964 85.131 63.7854 85.1088 63.7037C85.0119 63.288 84.6558 62.946 84.1654 62.946C83.4895 62.946 83.0879 63.5402 83.0879 64.3353C83.0879 65.0627 83.4441 65.665 84.1503 65.665C84.5882 65.665 84.9897 65.3755 85.1088 64.8851C85.131 64.7963 85.138 64.7066 85.138 64.6026V63.9781Z" fill="#5F6266"/>
<path d="M38.1621 12.2401C38.9975 11.4592 40.4453 9.93679 39.051 8.09856C38.2378 7.0281 36.3662 6.96353 35.4037 7.75149C32.6635 9.99632 25.0573 17.7064 25.0573 17.7064C24.6013 18.1463 24.3289 18.6225 24.2472 19.1068H30.6538L38.1621 12.2401Z" fill="#5F6266"/>
<path d="M25.0583 21.0691L35.6206 31.1492C37.2904 32.4133 38.8754 31.6173 39.4696 30.5246C40.3736 28.8579 39.2507 27.3678 38.0904 26.4597L30.7062 19.6133H24.231C24.2926 20.1117 24.5569 20.607 25.0583 21.0691Z" fill="#5F6266"/>
<path d="M65.4824 25.3459C64.5099 26.1076 63.5665 27.3546 64.3282 28.752C64.8267 29.665 66.1473 30.3329 67.5477 29.2786L76.4059 20.826C76.8256 20.4426 77.0395 20.0299 77.087 19.6133H72.4449L65.4824 25.3459Z" fill="#5F6266"/>
<path d="M65.4754 13.3651C64.5028 12.6033 63.5594 11.3563 64.3212 9.95898C64.8125 9.05903 66.2119 8.50514 67.4801 9.38794C67.5204 9.41619 67.5588 9.44948 67.5951 9.48378L76.3989 17.885C76.8186 18.2684 77.0324 18.681 77.0799 19.0977H72.4379L65.4754 13.3651Z" fill="#5F6266"/>
<path d="M40.2001 22.0901L57.057 38.1682C59.7165 40.1799 62.2458 38.9127 63.1901 37.1713C64.6349 34.5119 62.84 32.1369 60.9927 30.6881L49.0442 19.6133H38.8754C38.9309 20.4597 39.3546 21.3052 40.2001 22.0901Z" fill="#BE2B36"/>
<path d="M61.1057 8.01076C62.4395 6.76476 64.7509 4.3353 62.5233 1.40239C61.2268 -0.306707 58.2404 -0.407598 56.7119 0.850515C52.3393 4.43014 40.2001 16.7247 40.2001 16.7247C39.4303 17.4723 38.9874 18.2855 38.8885 19.1068H48.9736L61.1067 8.00976L61.1057 8.01076Z" fill="#BE2B36"/>
</g>
<defs>
<clipPath id="clip0_46_83">
<rect width="102" height="67.6637" fill="white"/>
</clipPath>
</defs>
</svg>
