<svg width="86" height="86" viewBox="0 0 86 86" fill="none" xmlns="http://www.w3.org/2000/svg">
<g clip-path="url(#clip0_21_647)">
<path d="M18.5774 44.2766C18.2078 45.2508 18.8461 47.384 19.9883 49.0133C22.1551 52.0871 26.052 53.4981 30.0832 52.6582C32.8883 52.0703 35.1223 50.3403 36.3653 47.8207C36.9364 46.6785 37.0203 46.3426 37.0203 45.3012L37.0371 44.0918L36.4492 44.1086C36.0797 44.1254 35.2399 44.4949 34.2153 45.066C31.6957 46.477 30.5871 46.7793 28.0508 46.7625C25.5649 46.7457 24.3723 46.4266 21.416 44.9317C19.518 43.991 18.7621 43.8063 18.5774 44.2766Z" fill="#404040"/>
<path d="M48.9461 44.243C48.879 44.411 48.879 44.9989 48.9294 45.5532C49.1309 47.888 51.2641 50.7602 53.5989 51.8688C58.0501 53.9852 63.3747 52.759 66.0118 49.0133C67.154 47.384 67.7922 45.2508 67.4227 44.2766C67.2379 43.8063 66.4821 43.9911 64.584 44.9317C61.6278 46.4266 60.4352 46.7458 57.9493 46.7626C55.4129 46.7794 54.3211 46.477 51.7848 45.0661C49.9372 44.0415 49.1141 43.8063 48.9461 44.243Z" fill="#404040"/>
<path d="M31.2926 62.8203C29.9656 63.6266 29.9152 65.4742 31.2086 66.4317C31.6453 66.7508 31.9645 66.7676 42.7984 66.818C52.9102 66.8516 53.9852 66.8348 54.5227 66.5828C56.068 65.8438 56.1688 63.6938 54.7074 62.8203C54.1867 62.5012 53.7836 62.4844 43 62.4844C32.2164 62.4844 31.8133 62.5012 31.2926 62.8203Z" fill="#404040"/>
<path d="M70.1437 9.7758C70.2277 9.89338 70.6644 10.5149 71.1348 11.1699C75.3676 16.9313 77.9543 23.3141 79.0629 30.7887C79.4996 33.7449 79.4492 40.0438 78.9789 43C78.223 47.636 77.0473 51.3145 74.998 55.5137C72.9152 59.7633 70.2781 63.4418 66.8516 66.8516C63.4418 70.2781 59.7465 72.9152 55.5137 74.9981C51.3144 77.0473 47.6191 78.2231 43 78.9789C40.0437 79.4492 33.7449 79.4996 30.7887 79.0629C23.2301 77.9375 16.9648 75.3844 11.0188 71.034C10.2797 70.4965 9.64141 70.0766 9.60781 70.127C9.49024 70.2445 11.4051 72.3442 13.3031 74.175C19.5684 80.2051 27.0934 83.9508 36.0293 85.5129C38.616 85.9664 44.5789 86.1344 47.468 85.832C60.9727 84.4547 72.9656 76.7953 80.0203 65.0207C83.1949 59.7129 85.2105 53.666 85.832 47.468C86.1344 44.5621 85.9664 38.616 85.5129 36.0293C84.2363 28.7395 81.6832 22.827 77.2656 16.8809C76.0395 15.2348 70.5805 9.57423 70.2109 9.57423C70.1102 9.57423 70.0766 9.65822 70.1437 9.7758Z" fill="#F4C534"/>
<path d="M31.1245 30.1503C30.9397 30.2847 30.5366 30.8054 30.2511 31.3261C29.5288 32.6195 27.7819 34.3999 26.5222 35.1558C25.9343 35.5085 24.8425 35.9957 24.1034 36.2308C22.8269 36.6675 22.5749 36.7011 19.5683 36.7011C16.2425 36.7011 15.8058 36.7851 15.453 37.457C15.1171 38.0785 15.2515 39.0863 15.7554 39.6406C16.3601 40.3292 17.7878 40.5476 20.828 40.43C24.0026 40.3124 26.1862 39.691 28.7226 38.196C30.8054 36.9867 33.1569 34.3496 33.7784 32.5355C34.1144 31.5445 34.0304 31.0238 33.3921 30.4023C33.0058 29.9992 32.7538 29.8984 32.1827 29.8984C31.7964 29.8984 31.3261 30.016 31.1245 30.1503Z" fill="#E9B02C"/>
<path d="M52.6077 30.4023C52.339 30.671 52.0702 31.0742 52.0366 31.3093C51.7343 32.8882 54.5729 36.6171 57.2772 38.196C59.8136 39.691 61.9972 40.3124 65.1718 40.43C68.212 40.5476 69.6397 40.3292 70.2612 39.6406C70.5972 39.271 70.7147 38.9519 70.7147 38.448C70.7147 36.8355 70.1436 36.5835 66.9858 36.7179C64.0464 36.8523 62.3835 36.5835 60.3679 35.6261C58.6546 34.8199 56.8069 33.1066 55.8495 31.4941C55.0768 30.1671 54.7409 29.8984 53.8171 29.8984C53.246 29.8984 52.994 29.9992 52.6077 30.4023Z" fill="#E9B02C"/>
<path d="M27.8491 46.8129C28.0507 46.8465 28.3866 46.8465 28.605 46.8129C28.8066 46.7793 28.6386 46.7458 28.2187 46.7458C27.7988 46.7458 27.6308 46.7793 27.8491 46.8129Z" fill="#ECC140"/>
<path d="M57.4116 46.8129C57.6132 46.8465 57.9491 46.8465 58.1675 46.8129C58.3691 46.7793 58.2011 46.7458 57.7812 46.7458C57.3613 46.7458 57.1933 46.7793 57.4116 46.8129Z" fill="#ECC140"/>
<path d="M37.5913 66.9692C40.5643 67.0028 45.4354 67.0028 48.4252 66.9692C51.3983 66.9524 48.9627 66.9356 42.9998 66.9356C37.037 66.9356 34.6014 66.9524 37.5913 66.9692Z" fill="#ECC140"/>
<path d="M37.625 0.268776C27.9668 1.51174 19.518 5.66057 12.5809 12.5809C8.96953 16.209 6.36602 19.8203 4.24961 24.1875C1.36055 30.1672 0 36.1469 0 43C0 52.7254 2.88906 61.3254 8.76797 69.1528C9.1375 69.6231 9.52383 70.0598 9.6582 70.1102C9.77578 70.1438 10.4477 70.5973 11.1195 71.1012C16.8977 75.3508 23.2805 77.9375 30.7887 79.0629C33.7449 79.4996 40.0438 79.4492 43 78.9789C47.6191 78.2231 51.3145 77.0473 55.5137 74.9981C59.7465 72.9153 63.4418 70.2781 66.8516 66.8516C70.2781 63.4418 72.9152 59.7633 74.998 55.5137C77.0473 51.3145 78.2231 47.636 78.9789 43C79.4492 40.0438 79.4996 33.7449 79.0629 30.7887C77.9375 23.2805 75.3508 16.8977 71.1012 11.1196C70.5973 10.4477 70.1438 9.7758 70.1102 9.65823C69.8414 8.96955 64.9031 5.74455 61.8125 4.24963C57.4789 2.15002 53.0949 0.856667 48.207 0.251976C45.6371 -0.0503693 40.1109 -0.0503693 37.625 0.268776ZM33.3922 30.4024C34.0305 31.0238 34.1145 31.5446 33.7785 32.5356C33.157 34.3496 30.8055 36.9867 28.7227 38.1961C26.1863 39.691 24.0027 40.3125 20.8281 40.4301C17.7879 40.5477 16.3602 40.3293 15.7555 39.6406C15.2516 39.0863 15.1172 38.0785 15.4531 37.4571C15.8059 36.7852 16.2426 36.7012 19.5684 36.7012C22.575 36.7012 22.827 36.6676 24.1035 36.2309C24.8426 35.9957 25.9344 35.5086 26.5223 35.1559C27.782 34.4 29.5289 32.6196 30.2512 31.3262C30.8895 30.184 31.2758 29.8985 32.1828 29.8985C32.7539 29.8985 33.0059 29.9992 33.3922 30.4024ZM54.8586 30.1336C55.0434 30.268 55.4969 30.8895 55.8496 31.4942C56.807 33.1067 58.6547 34.8199 60.368 35.6262C62.3836 36.5836 64.0465 36.8524 66.9859 36.718C70.1438 36.5836 70.7148 36.8356 70.7148 38.4481C70.7148 38.952 70.5973 39.2711 70.2613 39.6406C69.6398 40.3293 68.2121 40.5477 65.1719 40.4301C61.9973 40.3125 59.8137 39.691 57.2773 38.1961C54.573 36.6172 51.7344 32.8883 52.0367 31.3094C52.0703 31.0742 52.3391 30.6711 52.6078 30.4024C52.9941 29.9992 53.2461 29.8985 53.8172 29.8985C54.2035 29.8985 54.6738 29.9992 54.8586 30.1336ZM20.7777 44.4446C24.0363 46.1914 26.1527 46.7793 28.6891 46.6617C30.6711 46.561 31.9645 46.1578 34.232 44.8981C36.6844 43.5375 37.2891 43.5375 37.2891 44.9149C37.2723 47.1656 35.6766 49.9035 33.4594 51.432C31.2422 52.9606 27.7316 53.4477 24.8762 52.6414C21.3824 51.6504 18.7621 48.711 18.359 45.3348C18.1742 43.7055 18.8965 43.4535 20.7777 44.4446ZM51.768 44.8981C54.0188 46.1578 55.3121 46.561 57.3109 46.6617C59.8473 46.7793 61.9637 46.1914 65.2391 44.4446C67.2715 43.3528 67.977 43.8063 67.5402 45.9059C66.902 49.0805 64.3824 51.7176 61.1238 52.6414C58.2684 53.4477 54.7578 52.9606 52.5406 51.432C50.3402 49.9035 48.7277 47.1656 48.7109 44.9149C48.7109 43.5375 49.3324 43.5375 51.768 44.8981ZM54.7242 62.6524C56.2191 63.5594 56.3031 65.5246 54.909 66.5324L54.3379 66.9356H43H31.6621L31.091 66.5324C29.6969 65.5246 29.7809 63.5594 31.2758 62.6524C31.8133 62.3332 32.1492 62.3164 43 62.3164C53.8508 62.3164 54.1867 62.3332 54.7242 62.6524Z" fill="#FFD93B"/>
</g>
<defs>
<clipPath id="clip0_21_647">
<rect width="86" height="86" fill="white"/>
</clipPath>
</defs>
</svg>
