<svg width="334" height="334" viewBox="0 0 334 334" fill="none" xmlns="http://www.w3.org/2000/svg">
<g clip-path="url(#clip0_20_601)">
<rect x="0.386719" y="0.386662" width="333.612" height="333.612" rx="5" fill="#4CE0C4"/>
<path fill-rule="evenodd" clip-rule="evenodd" d="M-16.3284 83.2368C0.64704 76.309 18.2853 82.6198 35.5921 88.4804C59.0186 96.4134 89.2262 98.6729 97.6374 121.829C106.726 146.849 91.432 173.891 74.001 194.22C56.6971 214.401 32.4901 232.476 6.24026 228.421C-17.9982 224.677 -28.329 197.88 -40.2259 176.577C-49.4 160.149 -56.6364 142.488 -51.9566 124.209C-47.2489 105.822 -33.9815 90.441 -16.3284 83.2368Z" fill="#2ADCBA"/>
<path fill-rule="evenodd" clip-rule="evenodd" d="M277.509 -42.9534C259.433 -40.9965 242.902 -35.177 229.866 -22.4883C213.802 -6.85139 193.283 11.7998 198.969 33.4969C204.6 54.9832 233.341 56.1866 253.122 66.2492C273.92 76.8298 291.607 97.2642 314.383 92.2096C342.884 85.8848 372.236 67.1655 378.052 38.5249C383.793 10.2582 362.494 -16.2741 340.099 -34.4222C322.88 -48.376 299.533 -45.3378 277.509 -42.9534Z" fill="#2ADCBA"/>
<path fill-rule="evenodd" clip-rule="evenodd" d="M186.509 247.047C168.433 249.003 151.902 254.823 138.866 267.512C122.802 283.149 102.283 301.8 107.969 323.497C113.6 344.983 142.341 346.187 162.122 356.249C182.92 366.83 200.607 387.264 223.383 382.21C251.884 375.885 281.236 357.165 287.052 328.525C292.793 300.258 271.494 273.726 249.099 255.578C231.88 241.624 208.533 244.662 186.509 247.047Z" fill="#2ADCBA"/>
</g>
<defs>
<clipPath id="clip0_20_601">
<rect width="333.612" height="333.612" fill="white" transform="translate(0.386719 0.386662)"/>
</clipPath>
</defs>
</svg>
